/* XPM */
static char *ghini[] = {
/* columns rows colors chars-per-pixel */
"64 64 4 1 ",
"  c #000001",
". c #FF0829",
"X c #FFD58B",
"o c None",
/* pixels */
"oooooooooooooooooooooooooooooooooooooooooooooooooooooooooooooooo",
"oooooooooooooooooooooooooooooooooooooooooooooooooooooooooooooooo",
"oooooooooooooooooooooooooooooooooooooooooooooooooooooooooooooooo",
"oooooooooooooooooooooooooooooooooooooooooooooooooooooooooooooooo",
"oooooooooooooooooooooooooooooooooooooooooooooooooooooooooooooooo",
"oooooooooooooooooooooooooooooooooooooooooooooooooooooooooooooooo",
"oooooooooooooooooooooooooooooooooooooooooooooooooooooooooooooooo",
"oooooooooooooooooooooooooooooooooooooooooooooooooooooooooooooooo",
"oooooooooooooooooooooooooooooooooooooooooooooooooooooooooooooooo",
"oooooooooooooooooooooooooooooooooooooooooooooooooooooooooooooooo",
"oooooooooooooooooooooooooooooooooooooooooooooooooooooooooooooooo",
"oooooooooooooooooooooooooooooooooooooooooooooooooooooooooooooooo",
"oooooooooooooooooooooooooooooooooooooooooooooooooooooooooooooooo",
"oooooooooooooooooooooooooooooooooooooooooooooooooooooooooooooooo",
"oooooooooooooooooooooooooooooooooooooooooooooooooooooooooooooooo",
"oooooooooooooooooooooooooooooooooooooooooooooooooooooooooooooooo",
"oooooooooooooooooooooooooooooooooooooooooooooooooooooooooooooooo",
"oooooooooooooooooooooooooooooooooooooooooooooooooooooooooooooooo",
"oooooooooooooooooooooooooooooooooooooooooooooooooooooooooooooooo",
"oooooooooooooooooooooooooooooooooooooooooooooooooooooooooooooooo",
"oooooooooooooooooooooooooooooooooooooooooooooooooooooooooooooooo",
"oooooooooooooooooooooooooooooooooooooooooooooooooooooooooooooooo",
"oooooooooooooooooooooooooooooooooooooooooooooooooooooooooooooooo",
"oooooooooooooooooooooooooooooooooooooooooooooooooooooooooooooooo",
"oooooooooooooooooooooooooooooooooooooooooooooooooooooooooooooooo",
"oooooooooooooooooooooooooooooooooooooooooooooooooooooooooooooooo",
"oooooooooooooooooooooooooooooooooooooooooooooooooooooooooooooooo",
"oooooooooooooooooooooooooooooooooooooooooooooooooooooooooooooooo",
"oooooooooooooooooooooooooooooooooooooooooooooooooooooooooooooooo",
"oooooooooooooooooooooooooooooooooooooooooooooooooooooooooooooooo",
"oooooooooooooooooooooooooooooooooooooooooooooooooooooooooooooooo",
"oooooooooooooooooooooooooooooooooooooooooooooooooooooooooooooooo",
"oooooooooooooooooooooooooooooooooooooooooooooooooooooooooooooooo",
"oooooooooooooooooooooooooooooooooooooooooooooooooooooooooooooooo",
"oooooooooooooooooooooooooooooooooooooooooooooooooooooooooooooooo",
"oooooooooooooooooooooooooooooooooooooooooooooooooooooooooooooooo",
"ooooooooooooooooooooooooo           oooooooooooooooooooooooooooo",
"ooooooooooooooooooooooooo           oooooooooooooooooooooooooooo",
"oooooooooooooo     oooo  XXXXXXXXXXX   oooo       oooooooooooooo",
"oooooooooooooo     oooo  XXXXXXXXXXX   oooo       oooooooooooooo",
"oooooooooooooo  XXX    XXXXX    XXXXXXX    XXXXX  oooooooooooooo",
"oooooooooooooo  XXX    XXXXX    XXXXXXX    XXXXX  oooooooooooooo",
"oooooooooooooo  XXXXX  XX   ....  XXXXX  XXXX   oooooooooooooooo",
"oooooooooooooo  XXXXX  XX   ....  XXXXX  XXXX   oooooooooooooooo",
"oooooooooooooooo   XX  XX         XXXXXXXXX  ooooooooooooooooooo",
"oooooooooooooooo   XX  XX         XXXXXXXXX  ooooooooooooooooooo",
"ooooooooooooooooooo    XXXXXXXXXXXXX   XX  ooooooooooooooooooooo",
"ooooooooooooooooooo    XXXXXXXXXXXXX   XX  ooooooooooooooooooooo",
"ooooooooooooooooooo  XX                XX  ooooooooooooooooooooo",
"ooooooooooooooooooo  XX                XX  ooooooooooooooooooooo",
"ooooooooooooooooooo  XX  ...  ......   XX  oo   oooooooooooooooo",
"ooooooooooooooooooo  XX  ...  ......   XX  oo   oooooooooooooooo",
"ooooooooooooooooooo  XX  ...  ....  XXXXX    XXX  oooooooooooooo",
"ooooooooooooooooooo  XX  ...  ....  XXXXX    XXX  oooooooooooooo",
"ooooooooooooooooooo  XX  ...  ....  XXX    XXXXX  oooooooooooooo",
"ooooooooooooooooooo  XX  ...  ....  XXX    XXXXX  oooooooooooooo",
"ooooooooooooooooooo  XX  .........  XXXXXXXXX   oooooooooooooooo",
"ooooooooooooooooooo  XX  .........  XXXXXXXXX   oooooooooooooooo",
"ooooooooooooooooooooo  XX         XXXXXXX    ooooooooooooooooooo",
"ooooooooooooooooooooo  XX         XXXXXXX    ooooooooooooooooooo",
"ooooooooooooooooooooooo  XXXXXXXXXXXXXX  ooooooooooooooooooooooo",
"ooooooooooooooooooooooo  XXXXXXXXXXXXXX  ooooooooooooooooooooooo",
"ooooooooooooooooooooooo                  ooooooooooooooooooooooo",
"ooooooooooooooooooooooooo              ooooooooooooooooooooooooo",
};
