/* XPM */
static char *arrow_enemy[] = {
/* columns rows colors chars-per-pixel */
"64 64 176 2 ",
"   c gray16",
".  c #352E29",
"X  c #392F2B",
"o  c #2D392A",
"O  c #36332D",
"+  c #39352E",
"@  c #2D2E35",
"#  c #2E313C",
"$  c #353339",
"%  c #393939",
"&  c #593C2D",
"*  c #463B32",
"=  c #6A3E3E",
"-  c #334D2B",
";  c #3D6C2E",
":  c #5F4D26",
">  c #4A4233",
",  c #574B38",
"<  c #674329",
"1  c #734729",
"2  c #754829",
"3  c #65573C",
"4  c #6A5B3E",
"5  c #506730",
"6  c #2F3442",
"7  c #303647",
"8  c #393542",
"9  c #32394D",
"0  c #3E394A",
"q  c #343C54",
"w  c #353E59",
"e  c #423C4F",
"r  c #423D51",
"t  c #36415F",
"y  c #374364",
"u  c #39466A",
"i  c #3B4A73",
"p  c #3E4F7E",
"a  c gray25",
"s  c #43424E",
"d  c #4C4C4C",
"f  c #4A4752",
"g  c #534D5F",
"h  c #505050",
"j  c #535059",
"k  c #585858",
"l  c #7A4242",
"z  c #685947",
"x  c #776542",
"c  c #4C4765",
"v  c #514767",
"b  c #594F74",
"n  c #4E5570",
"m  c #5C5078",
"M  c #605776",
"N  c gray39",
"B  c #6C6C6C",
"V  c #726D69",
"C  c #747474",
"Z  c #864F29",
"A  c #8E5329",
"S  c #98582A",
"D  c #A25B29",
"F  c #AA5E28",
"G  c #86742F",
"H  c #907C30",
"J  c #B56329",
"K  c #A9693D",
"L  c #8D4949",
"P  c #9C4D4D",
"I  c #A85151",
"U  c #BA5757",
"Y  c #986B4B",
"T  c #89734A",
"R  c #947B4B",
"E  c #B5794E",
"W  c #CD7D44",
"Q  c #D76060",
"!  c #DD6262",
"~  c #43802F",
"^  c #4A9431",
"/  c #909027",
"(  c #9D8731",
")  c #9F8E32",
"_  c #B09229",
"`  c #ACB835",
"'  c #C49423",
"]  c #C4A634",
"[  c #CDAE35",
"{  c #D8B636",
"}  c #CDC436",
"|  c #EEC838",
" . c #FFD639",
".. c #9C824D",
"X. c #988152",
"o. c #A1864F",
"O. c #BE8F58",
"+. c #D4834A",
"@. c #D78C57",
"#. c #E08F55",
"$. c #EB995F",
"%. c #C9A55C",
"&. c #D0AA5E",
"*. c #ED9B61",
"=. c #D1B367",
"-. c #DEB563",
";. c #F7A56B",
":. c #3F5183",
">. c #475382",
",. c #41548A",
"<. c #545782",
"1. c #435892",
"2. c #445A97",
"3. c #585F9C",
"4. c #635580",
"5. c #675888",
"6. c #68598A",
"7. c #6D5D91",
"8. c #586588",
"9. c #797285",
"0. c #75659A",
"q. c #475FA3",
"w. c #4A65AF",
"e. c #4B68B5",
"r. c #4E6CBF",
"t. c #576BB3",
"y. c #7D6BAE",
"u. c #5070C7",
"i. c #5273CE",
"p. c #5973CC",
"a. c #5A75D1",
"s. c #5D7AD1",
"d. c #667BD7",
"f. c #737EDE",
"g. c #767FE0",
"h. c #816CAF",
"j. c #826DB1",
"k. c #8670B7",
"l. c #8B74BF",
"z. c #937FBE",
"x. c #827FDC",
"c. c #7087D9",
"v. c gray52",
"b. c #848894",
"n. c gray57",
"m. c gray61",
"M. c #9887BE",
"N. c gray67",
"B. c #B1B1B1",
"V. c #B9B9B9",
"C. c #E0CC81",
"Z. c #FFEB9F",
"A. c #9B82D3",
"S. c #A084DF",
"D. c #8A85EA",
"F. c #968BEE",
"G. c #A588E7",
"H. c #A28EF6",
"J. c #AE91FA",
"K. c #B594FF",
"L. c #BB9CFF",
"P. c #BFA2FE",
"I. c #C2A7FF",
"U. c #CCB6FF",
"Y. c gray77",
"T. c gray80",
"R. c #D8D8D8",
"E. c #CFC4E7",
"W. c #DECFFF",
"Q. c #E3D7FF",
"!. c #E7DCFE",
"~. c #E7E7E7",
"^. c gray92",
"/. c #F6F2FC",
"(. c white",
"). c None",
/* pixels */
").).).).).).).).).).).).).).).).).).).).).).).).).).).).).          ).).).).).).).).).).).).).).).).).).).).).).).).).).).).).).",
").).).).).).).).).).).).).).).).).).).).).).).).).).).).).          ).).).).).).).).).).).).).).).).).).).).).).).).).).).).).).",
").).).).).).).).).).).).).).).).).).).).).).).).).).).  9 w.q.q.q.q.q   ).).).).).).).).).).).).).).).).).).).).).).).).).).).).",
").).).).).).).).).).).).).).).).).).).).).).).).).).    q i.i.i.i.i.q     ).).).).).).).).).).).).).).).).).).).).).).).).).).).",
").).).).).).).).).).).).).).).).).).).).).).).).).).    # p p p p p #     ).).).).).).).).).).).).).).).).).).).).).).).).).).).",
").).).).).).).).).).).).).).).).).).).).).).                                      ).).).).).).).).).).).).).).).).).).).).).).).",
").).).).).).).).).).).).).).).).).).).).).).9 9 9 9 #   $ k k k k k $   # 9 9 9 9 ).).).).).).).).).).).).).).).).).).).).).).).",
").).).).).).).).).).).).).).).).).).).).  @ i.i.i.i.i   N (.(.(.(.(.N   i i.i.i.i.@   ).).).).).).).).).).).).).).).).).).).).).",
").).).).).).).).).).).).).).).).).).).).  @ i.i.i.i.i   N (.(.(.(.(.N   i i.i.u.u.#   ).).).).).).).).).).).).).).).).).).).).).",
").).).).).).).).).).).).).).).).).    y i.u.i.i.9   0.J.J.K.K.(.(.(././.m.  s K.K.p.u.y     ).).).).).).).).).).).).).).).).).).",
").).).).).).).).).).).).).).).).).    y i.i.i.i.8   0.K.K.K.K.(.(.(.(.(.m.  r K.K.a.i.y     ).).).).).).).).).).).).).).).).).).",
").).).).).).).).).).).).).).).).).    y i.i.i.i.8   0.K.K.K.K.(.(.(.(.(.m.  r K.K.a.i.y     ).).).).).).).).).).).).).).).).).).",
").).).).).).).).).).).).).).).).).    y i.a.F.F.t.2.>.v 7.K.K.(.(.(.n.B 9.l.A.!.!.d.i.y     ).).).).).).).).).).).).).).).).).).",
").).).).).).).).).).).).).).).).).    y i.a.K.K.d.i.i   v K.J.(.(.(.N   6.J.P.(.(.d.i.y     ).).).).).).).).).).).).).).).).).).",
").).).).).).).).).).).).).).).).).    y i.p.D.D.a.i.i   c K.K.(.(.(.N   m D.F.W.W.s.i.y     ).).).).).).).).).).).).).).).).).).",
").).).).).).).).).).).).).).).).).    y i.i.i.i.i.i.i   c K.K.(.(.(.N   p i.d.L.K.a.i.y     ).).).).).).).).).).).).).).).).).).",
").).).).).).).).).).).).).).).).).6 7 i w.w.w.w.w.w.>.s M I.P.(.(.(.v.h n e.t.x.A.e.w.u 9 6 ).).).).).).).).).).).).).).).).).).",
").).).).).).).).).).).).).).).    1.i.1.            0.K.U.(.(.(.(.(.(.(.m.            1.i.1.    ).).).).).).).).).).).).).).).).",
").).).).).).).).).).).).).).).    1.i.,.            0.K.I.(.(.(.(.(.(.(.m.            1.i.1.    ).).).).).).).).).).).).).).).).",
").).).).).).).).).).).).).).).    y.J.y.            ,.a.f.L.L.K.K.L.c.s.>.            y.J.y.    ).).).).).).).).).).).).).).).).",
").).).).).).).).).).).).).).).    j.K.j.            :.i.d.K.K.K.K.K.f.i.>.            j.K.j.    ).).).).).).).).).).).).).).).).",
").).).).).).).).).).).).).).).    3.f.3.            o t n c.f.f.f.f.>.y 6             3.f.3.    ).).).).).).).).).).).).).).).).",
").).).).).).).).).).).).).).).    1.i.1.                t i.i.i.i.i.t                 1.i.1.    ).).).).).).).).).).).).).).).).",
").).).).).).).).).).).).).).).    1.i.1.        B h.h   # ,.:.,.,.,.6   h v.B         1.i.1.    ).).).).).).).).).).).).).).).).",
").).).).).).).).).).).).).).).    1.i.1.        R.(.v..                 v.(.R.        1.i.1.    ).).).).).).).).).).).).).).).).",
").).).).).).).).).).).).).).).    ,.e.,.7 #     R.(.m.d %           a d m.(.R.    # 6 ,.e.:.    ).).).).).).).).).).).).).).).).",
").).).).).).).).).).).).              y i.r.    R.(.(.(.Y.          Y.(.(.(.R.    u.u.y               ).).).).).).).).).).).).).",
").).).).).).).).).).).).              y i.r.    R.(.(.(.Y.          Y.(.(.(.R.    u.i.y               ).).).).).).).).).).).).).",
").).).).).).).).).).  h ~.~.~.~.~.B   y i.a.G.S.j t > % $     D D D , e - e g G.G.p.i.y   B ~.~.~.~.~.h   ).).).).).).).).).).).",
").).).).).).).).).).  d (.(.(.(.(.C   y i.a.K.K.e             J J J &       e K.K.a.i.y   C (.(.(.(.(.d   ).).).).).).).).).).).",
").).).).).).).).  m h.M.(.(.(.(.(.T.B.b.y u m m ; 5 -   o ; ; & & & X   g h.y.g.g.i y b.B.T.(.(.(.(.(.M.h.m   ).).).).).).).).).",
").).).).).).).    6.K.I.(.(.(.(.(.(.(.B.        ~ ^ ;   - ^ ^           6.K.H.i.i.@   B.(.(.(.(.(.(.(.I.K.6.    ).).).).).).).).",
").).).).).).).    6.K.I.(.(.(.(.(.(.(.B.        ~ ^ ;   - ^ ^           6.K.H.i.i.@   B.(.(.(.(.(.(.(.I.K.6.    ).).).).).).).).",
").).).).).).).    v h.z.Q.Q.Q.Q.Q./.(.B.        ~ ^ 5 : : ^ ^           <.D.x.1.,.@   B.(./.Q.Q.Q.Q.Q.M.h.v     ).).).).).).).).",
").).).).).).).        r K.K.K.K.K.!.(.B.        ~ ^ / _ / ^ ^           u p.w.        B.(.!.K.K.K.K.K.e         ).).).).).).).).",
").).).).).).).O X .   0 G.G.G.L.L.!.(.V.a %     ~ ^ / ' _ ^ ^       % t <.c.t.- a a a N.~.E.G.G.G.G.G.0     X X ).).).).).).).).",
").).).).).    A J 1           ^.(.(.(.(.(.^.    ~ ^ `  .} ^ ^       Y.(.(.(.(.(.(.(.(.C                   2 J A     ).).).).).).",
").).).).).    A J 2           ~.(.(.(.(.(.^.    ~ ^ `  .} ^ ^       Y.(.(.(.(.(.(.(.(.C                   2 J A     ).).).).).).",
").).).).).    E $.Y   * %.%.%.d d d d 9.L.L.S.S.s o )  .] o o e.e.e.c d 8.c.c.P.P.j s X.%.T   . D D D S S W *.E     ).).).).).).",
").).).).).    O.;.Y   * -.-.-.+       b K.K.K.K.e   (  .]     i.i.i.w   i i.d.K.K.8   ..-...  O J J J J J +.;.@.    ).).).).).).",
").).).).).    K W E Y Y x 4 4 R R >   0 4.6.K.K.r   (  .]     D.D.D.r   6 u i 4.4.R R x x ,   . J J J +.+.+.W K     ).).).).).).",
").).).).).    A J W ;.@..     &.-.4       $ K.K.e   (  .]     K.K.K.g             %.-.4       . J J J *.;.+.J Z     ).).).).).).",
").).).).).    1 A K #.E       R o.x 3 3 3 z k.k.8   (  .]     k.k.j.0   > 3 3 3 3 ..o.,   a C V Z Z Z +.@.K A 2     ).).).).).).",
").).).).).).).    1 J S           ..-.-.-.&.        (  .]               x -.-.-.-.+       C (.~.      S J <     ).).).).).).).).",
").).).).).).).    < F S % % % % % ..&.&.-.&.+ O     (  .]     + + O O O T -.=.&.&.+   @ $ C (.^.% % % S F <     ).).).).).).).).",
").).).).).).).).).).  d (.(.(.(.(.C   4 -.-.-.-.>   (  .]     -.-.-.-.-.-.-.O.        j.K.U.(.(.(.(.(.d   ).).).).).).).).).).).",
").).).).).).).).).).  h (.(.(.(.(.C   4 -.-.-.-.>   )  .]     -.-.-.-.-.-.-.%.        j.K.U.(.(.(.(.(.h   ).).).).).).).).).).).",
").).).).).).).).).).  s I.I.I.I.I.M   O > > > >     (  .]     -.-.-.x * * > *         $ e f h k I.I.I.s   ).).).).).).).).).).).",
").).).).).).).).).).  e K.K.K.K.K.b                 (  .]     -.-.-.,                         8 K.K.K.e   ).).).).).).).).).).).",
").).).).).).).).).).).0 5.5.5.5.5.e                 (  .]     x x x n :.w   X L L L L L L =   @ 5.5.5.0 ).).).).).).).).).).).).",
").).).).).).).).).).).).                            (  .]           q.i.:.  * ! ! ! ! ! ! P           ).).).).).).).).).).).).).",
").).).).).).).).).).).).                            (  .]     q q w ,.2.n = = I I I I I I l           ).).).).).).).).).).).).).",
").).).).).).).).).).).).).).).).).                  (  .]     i.i.i.t   l ! U                   ).).).).).).).).).).).).).).).).",
").).).).).).).).).).).).).).).).).                  (  .]     i.i.i.t   l ! U                   ).).).).).).).).).).).).).).).).",
").).).).).).).).).).).).).).).).).                  (  .]     u.u.u.q   l Q U                   ).).).).).).).).).).).).).).).).",
").).).).).).).).).).).).).).).).).).).).            (  .]                                   ).).).).).).).).).).).).).).).).).).",
").).).).).).).).).).).).).).).).).).).).            (  .]                                   ).).).).).).).).).).).).).).).).).).",
").).).).).).).).).).).).).).).).).).).).).).    _ [ |  .| [ [               @ ).).).).).).).).).).).).).).).).).).).).).).).).).",
").).).).).).).).).).).).).).).).).).).).).).    {  . . . . . .                ).).).).).).).).).).).).).).).).).).).).).).).).).",
").).).).).).).).).).).).).).).).).).).).).).).).G ( =.Z.C.H H ).).).).).).).).).).).).).).).).).).).).).).).).).).).).).).).).).",
").).).).).).).).).).).).).).).).).).).).).).).).    m.(.Y.    ).).).).).).).).).).).).).).).).).).).).).).).).).).).).).).).).).",
").).).).).).).).).).).).).).).).).).).).).).).).    v.Y.N.    ).).).).).).).).).).).).).).).).).).).).).).).).).).).).).).).).).",
").).).).).).).).).).).).).).).).).).).).).).).).).).      ).).).).).).).).).).).).).).).).).).).).).).).).).).).).).).).).).).).",
").).).).).).).).).).).).).).).).).).).).).).).).).).      ).).).).).).).).).).).).).).).).).).).).).).).).).).).).).).).).).).)."
};
