/* XPM */
static char *cucco[] = {
/* columns rows colors chars-per-pixel */
"64 64 70 1 ",
"  c #282828",
". c gray16",
"X c #312C29",
"o c #312F35",
"O c #313131",
"+ c #353535",
"@ c #493629",
"# c #573C29",
"$ c #5D3E29",
"% c #6F3F3F",
"& c #7B4B28",
"* c #7B4B29",
"= c #6D523F",
"- c #464646",
"; c #5B5B5B",
": c #624D5F",
"> c #574C70",
", c #5A4E74",
"< c gray44",
"1 c #864F29",
"2 c #B46328",
"3 c #B56229",
"4 c #B56329",
"5 c #934B4B",
"6 c #A14F4F",
"7 c #BB7442",
"8 c #B27B54",
"9 c #D35F5F",
"0 c #DE6262",
"q c #DE6363",
"w c #DB894F",
"e c #E08E55",
"r c #E18F55",
"t c #EA9D67",
"y c #F7A56A",
"u c #F6A56B",
"i c #F7A56B",
"p c #625581",
"a c #7B67A6",
"s c #806CAF",
"d c #8670B7",
"f c #947ACC",
"g c #997FD5",
"h c #818181",
"j c gray59",
"k c #B7B7B7",
"l c #AC8DF2",
"z c #B493FE",
"x c #B593FE",
"c c #B493FF",
"v c #B593FF",
"b c #B494FE",
"n c #B594FE",
"m c #B494FF",
"M c #B594FF",
"N c #BFA2FF",
"B c #C6ADFF",
"V c #CDB7FF",
"C c gray80",
"Z c #D5D5D5",
"A c #DDDDDD",
"S c #D3C0FE",
"D c #D3C0FF",
"F c #D9C8FF",
"G c #DACAFF",
"H c #E6DBFF",
"J c #EDE5FF",
"K c #FEFEFE",
"L c white",
"P c None",
/* pixels */
"PPPPPPPPPPPPPPPPPPPPPPPPPPPPPPPPPPPPPPPPPPPPPPPPPPPPPPPPPPPPPPPP",
"PPPPPPPPPPPPPPPPPPPPPPPPPPPPPPPPPPPPPPPPPPPPPPPPPPPPPPPPPPPPPPPP",
"PPPPPPPPPPPPPPPPPPPPPPPPPPPPPPPPPPPPPPPPPPPPPPPPPPPPPPPPPPPPPPPP",
"PPPPPPPPPPPPPPPPPPPPPPPPPPPPPPPPPPPPPPPPPPPPPPPPPPPPPPPPPPPPPPPP",
"PPPPPPPPPPPPPPPPPPPPPPPPPPPPPPPPPPPPPPPPPPPPPPPPPPPPPPPPPPPPPPPP",
"PPPPPPPPPPPPPPPPPPPPPPPPPPPPPPPPPPPPPPPPPPPPPPPPPPPPPPPPPPPPPPPP",
"PPPPPPPPPPPPPPPPPPPPPPPPPPPPPPPPPPPPPPPPPPPPPPPPPPPPPPPPPPPPPPPP",
"PPPPPPPPPPPPPPPPPPPPPPPPPPPPPPPPPPPPPPPPPPPPPPPPPPPPPPPPPPPPPPPP",
"PPPPPPPPPPPPPPPPPPPPPPPPPPPPPPPPPPPPPPPPPPPPPPPPPPPPPPPPPPPPPPPP",
"PPPPPPPPPPPPPPPPPPPPPPPPPPPPPPPPPPPPPPPPPPPPPPPPPPPPPPPPPPPPPPPP",
"PPPPPPPPPPPPPPPPPPPPPPPPPPPPPPPPPPPPPPPPPPPPPPPPPPPPPPPPPPPPPPPP",
"PPPPPPPPPPPPPPPPPPPPPPPPPPPPPPPPPPPPPPPPPPPPPPPPPPPPPPPPPPPPPPPP",
"PPPPPPPPPPPPPPPPPPPPPPPPPPPPPPPPPPPPPPPPPPPPPPPPPPPPPPPPPPPPPPPP",
"PPPPPPPPPPPPPPPPPPPPPPPPPPPPPPPPPPPPPPPPPPPPPPPPPPPPPPPPPPPPPPPP",
"PPPPPPPPPPPPPPPPPPPPPPPPPPPPPPPPPPPPPPPPPPPPPPPPPPPPPPPPPPPPPPPP",
"PPPPPPPPPPPPPPPPPPPPPPPPPPPPPPPPPPPPPPPPPPPPPPPPPPPPPPPPPPPPPPPP",
"PPPPPPPPPPPPPPPPPPPPPPPPPPPPPPPPPPPPPPPPPPPPPPPPPPPPPPPPPPPPPPPP",
"PPPPPPPPPPPPPPPPPPPPPPPPPPPPPPPPPPPPPPPPPPPPPPPPPPPPPPPPPPPPPPPP",
"PPPPPPPPPPPPPPPPPPPPPPPPPPPPPPPPPPPPPPPPPPPPPPPPPPPPPPPPPPPPPPPP",
"PPPPPPPPPPPPPPPPPPPPPPPPPPPPPPPPPPPPPPPPPPPPPPPPPPPPPPPPPPPPPPPP",
"PPPPPPPPPPPPPPPPPPPPPPPPPPPPPPPPPPPPPPPPPPPPPPPPPPPPPPPPPPPPPPPP",
"PPPPPPPPPPPPPPPPPPPPPPPPPPPPPPPPPPPPPPPPPPPPPPPPPPPPPPPPPPPPPPPP",
"PPPPPPPPPPPPPPPPPPPPPPPPPPPPPPPPPPPPPPPPPPPPPPPPPPPPPPPPPPPPPPPP",
"PPPPPPPPPPPPPPPPPPPPPPPPPPPPPPPPPPPPPPPPPPPPPPPPPPPPPPPPPPPPPPPP",
"PPPPPPPPPPPPPPPPPPPPPPPPPPPPPPPPPPPPPPPPPPPPPPPPPPPPPPPPPPPPPPPP",
"PPPPPPPPPPPPPPPPPPPPPPPPPPPPPPPPPPPPPPPPPPPPPPPPPPPPPPPPPPPPPPPP",
"PPPPPPPPPPPPPPPPPPPPPPPPPPPPPPPPPPPPPPPPPPPPPPPPPPPPPPPPPPPPPPPP",
"PPPPPPPPPPPPPPPPPPPPPPPPPPPPPPPPPPPPPPPPPPPPPPPPPPPPPPPPPPPPPPPP",
"PPPPPPPPPPPPPPPPPPPPPPPPPPPPPPPPPPPPPPPPPPPPPPPPPPPPPPPPPPPPPPPP",
"PPPPPPPPPPPPPPPPPPPPPPPPPPPPPPPPPPPPPPPPPPPPPPPPPPPPPPPPPPPPPPPP",
"PPPPPPPPPPPPPPPPPPPPPPPPPPPPPPPPPPPPPPPPPPPPPPPPPPPPPPPPPPPPPPPP",
"PPPPPPPPPPPPPPPPPPPPPPPPPPPPPPPPPPPPPPPPPPPPPPPPPPPPPPPPPPPPPPPP",
"PPPPPPPPPPPPPPPPPPPPPPPPPPPPPPPPPPPPPPPPPPPPPPPPPPPPPPPPPPPPPPPP",
"PPPPPPPPPPPPPPPPPPPPPPPPPPPPPPPPPP .... PPPPPPPPPPPPPPPPPPPPPPPP",
"PPPPPPPPPPPPPPPPPPPPPPPPPPPPPPPPPP.... .PPPPPPPPPPPPPPPPPPPPPPPP",
"PPPPPPPPPPPPPPPPPPPPPPPPPPP.. ....q0qqqq .PPPPPPPPPPPPPPPPPPPPPP",
"PPPPPPPPPPPPPPPPPPPPPPPPPPP.......qq00qq..PPPPPPPPPPPPPPPPPPPPPP",
"PPPPPPPPPPPPPPPPPPPPPP.....dMbMz>.....q0q6.PPPPPPPPPPPPPPPPPPPPP",
"PPPPPPPPPPPPPPPPPPPPPP+++O.slnMl,ooo++99q6.PPPPPPPPPPPPPPPPPPPPP",
"PPPPPPPPPPPPPPPPPPPP..LLLk...mM.dMMMLK..q6.PPPPPPPPPPPPPPPPPPPPP",
"PPPPPPPPPPPPPPPPPPPP..LLLZh- aapgMDSLLhh5%.PPPPPPPPPPPPPPPPPPPPP",
"PPPPPPPPPPPPPPPPPPPP..LLLKL<...MMMKLLLLL.  PPPPPPPPPPPPPPPPPPPPP",
"PPPPPPPPPPPPPPPPPPPP .BBBFLAC..MGJ;;KLLLCj.PPPPPPPPPPPPPPPPPPPPP",
"PPPPPPPPPPPPPPPPPPPP  ccMVLLL..MHK..LLLLKk.PPPPPPPPPPPPPPPPPPPPP",
"PPPPPPPPPPPPPPPPPP..LL..MmzHKKLMHL..LL.... PPPPPPPPPPPPPPPPPPPPP",
"PPPPPPPPPPPPPPPPPP..LL..nvMHLLKMHK..LL.....PPPPPPPPPPPPPPPPPPPPP",
"PPPPPPPPPPPPPPPPPP. vvLL...dMLKLLLKK..44u8.PPPPPPPPPPPPPPPPPPPPP",
"PPPPPPPPPPPPPPPPPP..MMLL...dmLLLLLLL..44y8.PPPPPPPPPPPPPPPPPPPPP",
"PPPPPPPPPPPPPPPPPP. MMLLLLLLLMnLLLLKbb..iii=.PPPPPPPPPPPPPPPPPPP",
"PPPPPPPPPPPPPPPPPP ...vMLKLVb .LLLMM..qq...PPPPPPPPPPPPPPPPPPPPP",
"PPPPPPPPPPPPPPPPPP....nMKLLVM..LLLnM..qq ..PPPPPPPPPPPPPPPPPPPPP",
"PPPPPPPPPPPPPPPPPP. Mz  MVL<.LLLLLMM. qqq6.PPPPPPPPPPPPPPPPPPPPP",
"PPPPPPPPPPPPPPPPPP..MM..MVL<.KLLLLMM..qqq6.PPPPPPPPPPPPPPPPPPPPP",
"PPPPPPPPPPPPPPPPPPPP..MMnMm>.KKKVmnMzz... PPPPPPPPPPPPPPPPPPPPPP",
"PPPPPPPPPPPPPPPPPPPP..vMfff:@CCKVbMMnb....PPPPPPPPPPPPPPPPPPPPPP",
"PPPPPPPPPPPPPPPPPPPP..Mx.  14  KVMzvMM..PPPPPPPPPPPPPPPPPPPPPPPP",
"PPPPPPPPPPPPPPPPPPPP..pp&*&7w. DNMpppp.. PPPPPPPPPPPPPPPPPPPPPPP",
"PPPPPPPPPPPPPPPPPPPP... 342ri..MvM ....  .PPPPPPPPPPPPPPPPPPPPPP",
"PPPPPPPPPPPPPPPPPPPP.. .X$4ruttooo..  ... PPPPPPPPPPPPPPPPPPPPPP",
"PPPPPPPPPPPPPPPPPPPP.....#4eiuy...........PPPPPPPPPPPPPPPPPPPPPP",
"PPPPPPPPPPPPPPPPPPPPPP  ....... ..    ..PPPPPPPPPPPPPPPPPPPPPPPP",
"PPPPPPPPPPPPPPPPPPPPPP............ .....PPPPPPPPPPPPPPPPPPPPPPPP",
"PPPPPPPPPPPPPPPPPPPPPPPPPP........ .PPPPPPPPPPPPPPPPPPPPPPPPPPPP",
"PPPPPPPPPPPPPPPPPPPPPPPPPP..........PPPPPPPPPPPPPPPPPPPPPPPPPPPP"
};
