/* XPM */
static char *dungeon_wall[] = {
/* columns rows colors chars-per-pixel */
"64 64 95 2 ",
"   c #08070C",
".  c #0C0B0E",
"X  c #110C0E",
"o  c #0E0D12",
"O  c #110F14",
"+  c #131216",
"@  c #191516",
"#  c #15141A",
"$  c #19161C",
"%  c #16191C",
"&  c #1B1A1E",
"*  c #211D1E",
"=  c #25201E",
"-  c #1D1D22",
";  c #211F24",
":  c #241E28",
">  c #1E2024",
",  c #1E2128",
"<  c #232225",
"1  c #2A2526",
"2  c #262827",
"3  c #2C2926",
"4  c #25242A",
"5  c #28272C",
"6  c #262A2D",
"7  c #2B2A2D",
"8  c #312D2D",
"9  c #33312E",
"0  c #2D2731",
"q  c #2D2C32",
"w  c #312F34",
"e  c #352F39",
"r  c #2E3134",
"t  c #323135",
"y  c #393536",
"u  c #3C3937",
"i  c #35343A",
"p  c #39363C",
"a  c #36393D",
"s  c #3B3A3D",
"d  c #423D3E",
"f  c #3F403C",
"g  c #44413E",
"h  c #49433F",
"j  c #3C3741",
"k  c #363940",
"l  c #3E3D42",
"z  c #413F43",
"x  c #483F40",
"c  c #3E4145",
"v  c #3E4148",
"b  c #434244",
"n  c #494545",
"m  c #474843",
"M  c #4D4946",
"N  c #454449",
"B  c #49464B",
"V  c #46494D",
"C  c #4C4A4C",
"Z  c #504B46",
"A  c #504748",
"S  c #514D4C",
"D  c #4F504B",
"F  c #54514E",
"G  c #59514F",
"H  c #4D4C51",
"J  c #514E53",
"K  c #544E58",
"L  c #4F5055",
"P  c #535254",
"I  c #595555",
"U  c #575853",
"Y  c #5C5956",
"T  c #555459",
"R  c #59575B",
"E  c #57595D",
"W  c #5B5A5C",
"Q  c #615D5C",
"!  c #64615E",
"~  c #5D5C61",
"^  c #615E63",
"/  c #636264",
"(  c #6A6464",
")  c #6B6A67",
"_  c #656569",
"`  c #69676B",
"'  c #6B6A6B",
"]  c #716C6B",
"[  c #6D6C71",
"{  c #716E72",
"}  c #727274",
"|  c #76757A",
" . c #78777C",
".. c #79787D",
"X. c #7C7B80",
/* pixels */
"< H L ~ T L L t 6 L V z z l N l N z ~ q s j l c N z H H 7 s N i k i E C B x n z x N n C 9 y 5 4 a N z j < j C l l - i N l b z b ",
"H H B H N l l l q z z V N z l l l l H q N N N l l N N l t t z V v i P M B x B z x n C M y t q t N b j z B z j z N r p V N B V N ",
"H l N N V l v l < N i L V N N l z z H t l l l N N z l z w N l N k q V b B B z 8 A C n M u t 0 a H N z z z N N l H e b l l N l l ",
"N l z N N v N s < T N ~ T V N l l l B r l l N N l z l z t p N N V r l Y A A x x x x z s b n H 4 H l N z z N N l N 0 N z l v N l ",
"z l l l N l N p - H H 0 i N v l l l l q N l N N N z z l i r N N V t t / H A B x N d s z x b t 4 V l N z l N N z l 4 ~ N l l N l ",
"7 t i i p l e k - a k q r r q p t t p 4 z l s p p s l H q p l p j i q q q t l j j H j 7 7 q p - t 0 q i i i i q q > t q t 0 a i ",
"7 t q w q e q - - r t t r r q q 4 6 w 4 p e q i i t i q - a 0 q t 0 q t t r t q q q i 6 q 0 0 & 4 q p t q q q 0 5 < < 7 0 i r w ",
"s t t i i i i i e t i l - 0 T l V l l l N z l V H H a ~ _ } ^ ~ T T E H V / K H H ~ H ~ H ~ T T ~ V N H p H ~ N b l p t a p p p ",
"t i p t r e e e e k t e 0 H N j i s t i s j l j j H t E l j N N s l j s j a K p H V N c l b l l N N p l P l l c l N l H l t t i ",
"b b N b h b h n b N V q e 7 l p p p k i l i j a j k k E N N v l l N l z l v l H H l N N N l z N q H N N H t s f f g g f f N N m ",
"d d d d d b z u s N C i t 4 l a p p a k 0 r i 6 k e e N k l N b l l l l l l z V N H i j b b H b p i l l V q N y s f b l c s s f ",
"x x p z x z d b m c b i a < l j t i j N e i 0 q - 6 , < N l l z z b j l C l N q p 0 l l C N l 4 q 4 6 b C 4 0 0 l 7 7 r e z N z ",
"j e e j j w t y y i i b > l k t 4 - 4 - 4 5 6 0 0 6 - 7 p t 4 r t q t t t a i i 4 t q 4 6 t q a l t q p t & s r e q 0 r e r e k ",
"z K x j H C A Y W P T ~ N K ~ V K L i - H T ~ K l N l C E _ H < H b b H B 5 ~ ~ T ) 6 % P C N u 0 4 s ' T ~ ~ ~ K 0 6 k l l z z ",
"j l N V H f f g c l l N l N m m m P ~ 5 K z N l k N B H T E T < n C S A F B D D L / 6 9 ) Q J S Q d l C P D D D P 4 l z j e e e ",
"p j l V V b c b b v z N N b c m b C V b j l l l l N H N N z H 4 n d d d C N C L L D P c E P G I G R L W L D C C L e N e z p e 8 ",
"t a j l N V N V m N N N N N b c b B j t l l j l z V z z l z V 0 n d d d P m U D C D P m P P G I R Q U C D D D C P < l z j e e 8 ",
"i p 6 k z b V N C N l V B B m b f c q s b c l z l z V z N V z w x h d u U s E C P P U y U P I I I K P m D D D D V : p z z e p y ",
"k k , 0 k L j l N V H H V N V H N N 9 t V m u l l i l B H K j e b h d g u y W U L U H t C T E T T L H L V N B N 7 - 4 k k j k k ",
"r 0 r 6 6 7 0 i q q q q q 7 0 t l i y 2 r m t l l l i 8 j e z z n x d d c 9 f f W T T 6 p s t q q q t q 5 4 6 p 7 - 7 q 6 4 6 q ",
"c c f f l l N l i 4 p k q 5 p r q q 2 t u & u i t 4 i x x x z x n h d d u u E L 9 t N q q q t i t e - b z v l j a p q < < l f b ",
"b c m b g z N H T V T H H V H T H T L D W a r r p z V A K ^ ~ z b z d d f r Q W C p q p i i e q p j w C N N l l j V H C U f f f ",
"b b b b l l l N H c H z z V N H N b b D C u t s H z N x K K K e b d d d 8 c P V P H 4 j j s z b c b j H V N N N c c b c C f b m ",
"b N V V N N N N T N T N B H V K H N b m b t u l E N N B n A W 6 b d h d 7 V H H T ^ r l l N l l z H t V N B z l l N N j a N b b ",
"V V H H H T H V q s N H V V t t p l B m b 9 m z t l N d x b U 2 b b b b 0 c r i i a > p a l C H N N t k V j N j s j b i s V p N ",
"p t r q t 0 q s 0 0 t i i i t q 0 7 2 8 9 2 r 4 p l s x x x C & y 9 7 y & < q < 4 4 # q q 0 r t p 4 < r l q t r w i p q i q q 0 ",
"l V P T i V s t H N b l N V w V H H D D U P P ~ T N N d x N g & ^ ' ^ Q T H V c j N H V N b V H z P T K q H L V N H H K H H H V ",
"B U P / c L U r U n C n C C _ _ H D D m U D U E ~ p N z z N s q / U U D T U L P L C D C C C K H H C D L 9 W W V V V V x V H H H ",
"V C D L W Q L s V h b n N C U W C C D V f D U C p p b l l z j 5 ' U U U U P L D C C V C C C z N B T L P D D D H H N V z V V H H ",
"P L m L C U C E f d d z n M U L P P m N b 9 m E 0 p N j l N s 5 E E P P P P H C m L D H D C K H H V L U i i E H H V B z V V H L ",
"C 7 r s b r 9 L b h b b N m D 9 9 & r r y c > 0 7 p t i p i i - t t 7 7 2 f 9 a u V E T T E L 4 4 q 0 4 k l k e N K r V N H H J ",
"9 9 t 2 2 a 2 D b d z d h N P 2 9 2 t t q t < & < 7 i t t q 6 - q q 6 7 t t 2 2 3 8 < 7 7 2 7 0 0 w e 0 - r r w t t t q q q q t ",
"g m N m V H N b b b d d M n l T H H D B V m m C P b t g C P C D H K H H H H H 7 N H B C V H N z H H D C H D L I P I P T K b l l ",
"f b m m C H N l z n b b S C E t V V B m f f f C B m C V b b m b V B H V H H H w H H N N z N l l z z m m g b b n n b b V N N N N ",
"m b f c c H p l z N n n S S N i C K b m N m N C D C C C m m V V z N H V z N q 7 w V i w r t p V V V f m a f c n M C C N z N B L ",
"9 9 9 9 9 q q l z n n A I P r i q q m g l s l b m c f m b f f u l l l z j i < + j 4 7 q q q i 6 4 4 7 3 2 y u n s d b l b l t 4 ",
"c j l N H T a p B B A x e K i l A S U G D F 5 < - 4 - # - V W D H H l k N N z z z a t t r 9 f C % r 3 g h Z = i H B l b l N N N ",
"b B P H H K e i V H A H K : q B d d h h n F W p l N z V v T m g j l z N N N V V N L W D C m W ) < / G F G Q n n ` z l b z N V N ",
"V N l V H H < p V B K H H j r b d d h h I z j q 6 0 r , j l f f N l l N V B N N V m b c b f m V 2 c Z F Z d Y 4 c j c l l b l b ",
"N H K T T b r p j x K K H H b d d u n Z x j p i i i k i j s s s N N V N j l l l z m V m m m b c & m M M h F F w i z N N N N N m ",
"p q q t p i t i H B z z z K s 3 3 3 8 e 1 $ - - - - - 6 r t 2 8 i t p i q w r r t 9 r y a i y r = m d Z M h * r s i q r q q q q ",
"0 j i p a l q 4 6 H z z N L p A Q Q Q Q U I F G G Y Y W Q Y G G P I S * 6 t e , , q M b S b ] m < m n Z Z F 3 # s ~ ~ ~ t q z r ",
"i i i i i l q k l t z N N N 0 ^ U Z G F F Z Z m n g d g g h m M S I I W t a 0 q 4 S b n J C Z I 2 L n Z M Z h s [ N c E p t i t ",
"i i q r e l q l r 6 i V V V e Q I Z h Y A Z M M M M h h M M Z h n C A ] i s l f < J x b C M Z S < C M Z Z A u t ~ l N N t q p i ",
"l l l l c N q V T s 7 4 r x e J P I u u F F F S Z Z h h b h Z M C J d 7 u f s P 2 J b x M C n S < V M Z M h Z t P l l N q - c j ",
"t i 0 0 6 k 4 j l l i > < 5 e n C Y h 9 3 Y F F Z F m Z F P U U S J y w y f c ~ 2 J b b n C Z C < N A Z n h Q t H N H V q 4 j 0 ",
"6 4 0 0 0 , - 0 6 1 : : : : @ * 3 3 9 3 > 9 s j ; 6 4 w 1 8 8 8 2 9 u > & i s q < C b S A M Z A > c C B H d 8 , a f a a - 0 - 0 ",
"T K H K K ~ ~ } J : ^ z z x z d d M F C U W W T 0 i P d I x I P C C L m H H C T 4 S x C S M Z A < c A C B C 3 + K E ~ K N ~ ^ ^ ",
"z x x x x x x x B : ^ z z x h h n n x N J n S N l r C z J d b u c g f g l z N T 7 J b C S A Z = : c A A C J y w P z z x z z z d ",
"d x x d d d d x x 1 K z z j d d d d d x x d g H 4 l N x n d n m f b f f l N N V 8 S n A C A 9 h 1 c S A A G : j ~ x z z d d d x ",
"z j N l a s j l _ 4 H p s s y a y u u u f f b T q i T z z N H P V V V l H V z H t d x B S K u C , v P C T H - t T l j C n V z s ",
"> q 4 6 6 q t i j - t l q i b b b b C C U D f 7 7 4 i l a t 0 4 < 4 0 q < q C 7 0 y n A A A b C - c l l p ~ q z j C H z l l t 4 ",
"t w t t t i 0 w 6 # w e q 4 < 7 6 * < 2 3 2 2 q - # 4 q q 5 0 s 4 q q q 0 0 0 q 0 z x G K x b C > v t r q t t q i t t i 4 t r t ",
"V N K K P j V N H V H i z U U W ! U 5 ~ N N N H T L H V H H K q e N l q N N z < i x x J d d b B > v l s e t i t t i t j - V V b ",
"N N l l l z ~ J N z N z z N N f b L i k l j l l j z N l N V T < l i a p p p i b i S x 8 u d N b - v p p r r t t t i t r 0 V C V ",
"V N l l l H i i c q N N N s f f b L r N l l b N N N V C V ~ N p i j i t t i p c t H j t l N H j 4 z l l l l l z z z H V q V V N ",
"l z l N H N N 7 q q E j H C N C D L 0 7 z N N B B B L K ~ H H w l t j k p p s s t E H C H H H q 4 c ~ l N N N N H T N V q H T V ",
"i t t p i 0 - < 7 q 6 q q t t e 4 k - 4 t r q w t e t t q i i p - 6 - , < - & 5 s t p p i q t q 4 N t w i i i r r q t q + r t t ",
"- H B N z N B H N C N i 7 q w 6 0 0 0 4 0 6 4 7 t q 0 0 7 & i 5 4 - 0 e p e e p a s i 4 # o 5 N H N H V B V B b l N N V K p p i ",
"r K T K z x z j z n n G C y 7 N z N H H C i p w j i p e z e G Q u n J n n A K S S J J A G x U m C C D C m D H L L W W U P L L U ",
"f V H x z z H z e z n C J y q T H l N N N H p e z p e e e e x d ^ A J N A H K C A A A J J 8 B V C H H C D L L F F L L P D F C V ",
"r v V x z B z z z y d C K s t H N l N N j N H e e p e z e 0 C n n C P C z z x d n n A A K e b C C P L C m L L D C C m g g f c f ",
"r V H z x B K z z d b n S u p V V N N l H H T e z z z j z $ n h x n S M z x d z n n A n A p c m D P P m m C V C C m V g c c g m ",
"6 r ~ K K K K K K M n n G 7 q w t w w q i t w : e z d e z e b b d x S n z d d x n x n n A y b s r a 6 f y t 2 t t g f b b b m V "
};
