/* XPM */
static char *result[] = {
/* columns rows colors chars-per-pixel */
"64 64 5 1 ",
"  c #282828",
". c #B88820",
"X c #F8D038",
"o c #F8F8F8",
"O c None",
/* pixels */
"OOOOOOOOOOOOOOOOOOOO                OOOOOOOOOOOOOOOOOOOOOOOOOOOO",
"OOOOOOOOOOOOOOOOOOOO                OOOOOOOOOOOOOOOOOOOOOOOOOOOO",
"OOOOOOOOOOOOOOOOOOOO                OOOOOOOOOOOOOOOOOOOOOOOOOOOO",
"OOOOOOOOOOOOOOOOOOOO                OOOOOOOOOOOOOOOOOOOOOOOOOOOO",
"OOOOOOOOOOOOOOOO    ....XXXXXXXXXXXX    OOOOOOOOOOOOOOOOOOOOOOOO",
"OOOOOOOOOOOOOOOO    ....XXXXXXXXXXXX    OOOOOOOOOOOOOOOOOOOOOOOO",
"OOOOOOOOOOOOOOOO    ....XXXXXXXXXXXX    OOOOOOOOOOOOOOOOOOOOOOOO",
"OOOOOOOOOOOOOOOO    ....XXXXXXXXXXXX    OOOOOOOOOOOOOOOOOOOOOOOO",
"OOOOOOOOOOOO    ....XXXXXXXXooooooooXXXX    OOOO        OOOOOOOO",
"OOOOOOOOOOOO    ....XXXXXXXXooooooooXXXX    OOOO        OOOOOOOO",
"OOOOOOOOOOOO    ....XXXXXXXXooooooooXXXX    OOOO        OOOOOOOO",
"OOOOOOOOOOOO    ....XXXXXXXXooooooooXXXX    OOOO        OOOOOOOO",
"OOOOOOOOOOOO    ....XXXXXXXXoooooooooooo        ooooXXXX    OOOO",
"OOOOOOOOOOOO    ....XXXXXXXXoooooooooooo        ooooXXXX    OOOO",
"OOOOOOOOOOOO    ....XXXXXXXXoooooooooooo        ooooXXXX    OOOO",
"OOOOOOOOOOOO    ....XXXXXXXXoooooooooooo        ooooXXXX    OOOO",
"OOOOOOOOOOOO    ....XXXXXXXXXXXXoooooooo            ooooXXXX    ",
"OOOOOOOOOOOO    ....XXXXXXXXXXXXoooooooo            ooooXXXX    ",
"OOOOOOOOOOOO    ....XXXXXXXXXXXXoooooooo            ooooXXXX    ",
"OOOOOOOOOOOO    ....XXXXXXXXXXXXoooooooo            ooooXXXX    ",
"OOOOOOOO    ....XXXXXXXXoooooooooooo    ....XXXX....    XXXX    ",
"OOOOOOOO    ....XXXXXXXXoooooooooooo    ....XXXX....    XXXX    ",
"OOOOOOOO    ....XXXXXXXXoooooooooooo    ....XXXX....    XXXX    ",
"OOOOOOOO    ....XXXXXXXXoooooooooooo    ....XXXX....    XXXX    ",
"OOOOOOOO    ....XXXXXXXXXXXXoooo    ....XXXXooooXXXX....XXXX    ",
"OOOOOOOO    ....XXXXXXXXXXXXoooo    ....XXXXooooXXXX....XXXX    ",
"OOOOOOOO    ....XXXXXXXXXXXXoooo    ....XXXXooooXXXX....XXXX    ",
"OOOOOOOO    ....XXXXXXXXXXXXoooo    ....XXXXooooXXXX....XXXX    ",
"OOOOOOOO    ....XXXXoooooooooooo    ....XXXXooooooooXXXXXXXX    ",
"OOOOOOOO    ....XXXXoooooooooooo    ....XXXXooooooooXXXXXXXX    ",
"OOOOOOOO    ....XXXXoooooooooooo    ....XXXXooooooooXXXXXXXX    ",
"OOOOOOOO    ....XXXXoooooooooooo    ....XXXXooooooooXXXXXXXX    ",
"OOOO    ....XXXXXXXXXXXXoooo    ....XXXXoooo....ooooXXXX    OOOO",
"OOOO    ....XXXXXXXXXXXXoooo    ....XXXXoooo....ooooXXXX    OOOO",
"OOOO    ....XXXXXXXXXXXXoooo    ....XXXXoooo....ooooXXXX    OOOO",
"OOOO    ....XXXXXXXXXXXXoooo    ....XXXXoooo....ooooXXXX    OOOO",
"OOOO    ....XXXXoooooooooooo    ....XXXX....ooooXXXXXXXX    OOOO",
"OOOO    ....XXXXoooooooooooo    ....XXXX....ooooXXXXXXXX    OOOO",
"OOOO    ....XXXXoooooooooooo    ....XXXX....ooooXXXXXXXX    OOOO",
"OOOO    ....XXXXoooooooooooo    ....XXXX....ooooXXXXXXXX    OOOO",
"    ....XXXXXXXXoooooooo    ....XXXXooooooooooooXXXX    OOOOOOOO",
"    ....XXXXXXXXoooooooo    ....XXXXooooooooooooXXXX    OOOOOOOO",
"    ....XXXXXXXXoooooooo    ....XXXXooooooooooooXXXX    OOOOOOOO",
"    ....XXXXXXXXoooooooo    ....XXXXooooooooooooXXXX    OOOOOOOO",
"    XXXX        XXXXoooo    ........ooooooooXXXXXXXX    OOOOOOOO",
"    XXXX        XXXXoooo    ........ooooooooXXXXXXXX    OOOOOOOO",
"    XXXX        XXXXoooo    ........ooooooooXXXXXXXX    OOOOOOOO",
"    XXXX        XXXXoooo    ........ooooooooXXXXXXXX    OOOOOOOO",
"    XXXX    oooooooo    ....XXXXooooooooXXXXXXXX    OOOOOOOOOOOO",
"    XXXX    oooooooo    ....XXXXooooooooXXXXXXXX    OOOOOOOOOOOO",
"    XXXX    oooooooo    ....XXXXooooooooXXXXXXXX    OOOOOOOOOOOO",
"    XXXX    oooooooo    ....XXXXooooooooXXXXXXXX    OOOOOOOOOOOO",
"    ....XXXX        XXXXXXXXooooooooXXXXXXXX    OOOOOOOOOOOOOOOO",
"    ....XXXX        XXXXXXXXooooooooXXXXXXXX    OOOOOOOOOOOOOOOO",
"    ....XXXX        XXXXXXXXooooooooXXXXXXXX    OOOOOOOOOOOOOOOO",
"    ....XXXX        XXXXXXXXooooooooXXXXXXXX    OOOOOOOOOOOOOOOO",
"OOOO    ....XXXXXXXXXXXXXXXXXXXXXXXX        OOOOOOOOOOOOOOOOOOOO",
"OOOO    ....XXXXXXXXXXXXXXXXXXXXXXXX        OOOOOOOOOOOOOOOOOOOO",
"OOOO    ....XXXXXXXXXXXXXXXXXXXXXXXX        OOOOOOOOOOOOOOOOOOOO",
"OOOO    ....XXXXXXXXXXXXXXXXXXXXXXXX        OOOOOOOOOOOOOOOOOOOO",
"OOOOOOOO                            OOOOOOOOOOOOOOOOOOOOOOOOOOOO",
"OOOOOOOO                            OOOOOOOOOOOOOOOOOOOOOOOOOOOO",
"OOOOOOOO                            OOOOOOOOOOOOOOOOOOOOOOOOOOOO",
"OOOOOOOO                            OOOOOOOOOOOOOOOOOOOOOOOOOOOO"
};
