/* XPM */
static char *old_wall[] = {
/* columns rows colors chars-per-pixel */
"64 64 256 2 ",
"   c #503C2B",
".  c #5B3A1E",
"X  c #59432B",
"o  c #5C4C3C",
"O  c #594636",
"+  c #4E463B",
"@  c #67482B",
"#  c #644B34",
"$  c #6B4D33",
"%  c #634E3B",
"&  c #684C39",
"*  c #64523C",
"=  c #6C533C",
"-  c #6C5236",
";  c #745334",
":  c #73553C",
">  c #755A3D",
",  c #7B5B3C",
"<  c #7A5735",
"1  c #734F2E",
"2  c #7F613F",
"3  c #564D47",
"4  c #5B534A",
"5  c #5B5753",
"6  c #4B4945",
"7  c #624E43",
"8  c #645344",
"9  c #6B5543",
"0  c #6C5A45",
"q  c #64554B",
"w  c #6A564A",
"e  c #655A4C",
"r  c #6C5B4B",
"t  c #665947",
"y  c #715642",
"u  c #735B44",
"i  c #7B5D43",
"p  c #735D4B",
"a  c #795E4B",
"s  c #745647",
"d  c #645C54",
"f  c #6C5D53",
"g  c #635D5A",
"h  c #665A55",
"j  c #725E52",
"k  c #7B5F55",
"l  c #7C6245",
"z  c #74614C",
"x  c #7C634C",
"c  c #7A664A",
"v  c #6D6254",
"b  c #65625D",
"n  c #6C635C",
"m  c #6A6558",
"M  c #746353",
"N  c #7A6553",
"B  c #7C6955",
"V  c #74655A",
"C  c #7A665A",
"Z  c #746A5C",
"A  c #7C6B5C",
"S  c #756956",
"D  c #7D715E",
"F  c #6D614D",
"G  c #6A6562",
"H  c #6D6965",
"J  c #6B6867",
"K  c #746B63",
"L  c #7B6D63",
"P  c #736D6A",
"I  c #766B66",
"U  c #7D7264",
"Y  c #75716D",
"T  c #7C746B",
"R  c #7B776A",
"E  c #767471",
"W  c #7A7572",
"Q  c #7D7A75",
"!  c #7E7C79",
"~  c #777777",
"^  c #746E6F",
"/  c #835C39",
"(  c #81572F",
")  c #87623C",
"_  c #93693D",
"`  c #815E44",
"'  c #836344",
"]  c #82654C",
"[  c #846A4D",
"{  c #8B6949",
"}  c #936D47",
"|  c #826752",
" . c #836B54",
".. c #8A6D53",
"X. c #826D5B",
"o. c #896D5A",
"O. c #8B7154",
"+. c #84715D",
"@. c #8B735C",
"#. c #887659",
"$. c #957659",
"%. c #92724D",
"&. c #A47C52",
"*. c #826E62",
"=. c #886E64",
"-. c #837364",
";. c #8A7563",
":. c #8C7A65",
">. c #83756B",
",. c #8A766A",
"<. c #847A6C",
"1. c #8B7B6C",
"2. c #857866",
"3. c #937B64",
"4. c #927D6B",
"5. c #967A66",
"6. c #847C73",
"7. c #8B7D73",
"8. c #827E7A",
"9. c #857A75",
"0. c #937D73",
"q. c #A37F65",
"w. c #7F817B",
"e. c #94826D",
"r. c #9B836C",
"t. c #988366",
"y. c #858174",
"u. c #8C8274",
"i. c #85827D",
"p. c #8B847C",
"a. c #8D897D",
"s. c #89887A",
"d. c #938374",
"f. c #9A8673",
"g. c #9C8A74",
"h. c #93867B",
"j. c #948A7C",
"k. c #9B8B7C",
"l. c #978778",
"z. c #9B907D",
"x. c #8C816D",
"c. c #A4876B",
"v. c #A28E7C",
"b. c #A38B74",
"n. c #A4927D",
"m. c #A9937C",
"M. c #B39275",
"N. c #A5835D",
"B. c #857F81",
"V. c #7E8381",
"C. c #868481",
"Z. c #8A8682",
"A. c #8D8985",
"S. c #8D8C89",
"D. c #878886",
"F. c #918782",
"G. c #938C84",
"H. c #9A8E83",
"J. c #928E8A",
"K. c #988E8A",
"L. c #8E918C",
"P. c #8E9185",
"I. c #949185",
"U. c #9C9185",
"Y. c #95928D",
"T. c #9B948C",
"R. c #9D998D",
"E. c #96998C",
"W. c #8D8D92",
"Q. c #959491",
"!. c #9A9692",
"~. c #969994",
"^. c #9C9A95",
"/. c #9E9C99",
"(. c #96979A",
"). c #919091",
"_. c #A39484",
"`. c #A2958B",
"'. c #A39A8D",
"]. c #AB9C8C",
"[. c #AA9885",
"{. c #B29D88",
"}. c #A29C94",
"|. c #AA9E93",
" X c #A29E9A",
".X c #A59B96",
"XX c #AA968A",
"oX c #9EA19B",
"OX c #9EA195",
"+X c #B4A28C",
"@X c #A4A196",
"#X c #ACA295",
"$X c #A5A29D",
"%X c #AAA49C",
"&X c #ACA99E",
"*X c #A7A99C",
"=X c #B3A494",
"-X c #B2A69B",
";X c #B3A99D",
":X c #BBAB9C",
">X c #BAA795",
",X c #ADA492",
"<X c #9D9EA1",
"1X c #A29FA0",
"2X c #9EA2A2",
"3X c #A6A4A1",
"4X c #AAA6A2",
"5X c #A6A8A3",
"6X c #ADA9A5",
"7X c #AEACA9",
"8X c #A6A8AA",
"9X c #B2ACA5",
"0X c #BAADA3",
"qX c #B2ADAA",
"wX c #B4AAA6",
"eX c #AEB1AB",
"rX c #AEB1A5",
"tX c #B4B1A6",
"yX c #BBB1A5",
"uX c #B5B2AD",
"iX c #BAB4AC",
"pX c #BDB9AD",
"aX c #ACADB1",
"sX c #AFB1B3",
"dX c #B5B4B1",
"fX c #BAB5B2",
"gX c #BCB9B5",
"hX c #BDBCB9",
"jX c #B5B8B7",
"kX c #B3AFB1",
"lX c #C1B09E",
"zX c #C2B6AC",
"xX c #C3B9AE",
"cX c #C6B7A8",
"vX c #C3BCB4",
"bX c #C2BDBA",
"nX c #C7BCB4",
"mX c #C4B1A3",
"MX c #BEC1BC",
"NX c #CBC1B5",
"BX c #C5C1BD",
"VX c #CBC4BC",
"CX c #C6C3B7",
"ZX c #D3C6BA",
"AX c #C5C0AD",
"SX c #BBBDC0",
"DX c #C5C4C2",
"FX c #CAC5C2",
"GX c #CCCAC5",
"HX c #CACBC8",
"JX c #D3CCC6",
"KX c #D5D2CB",
"LX c #D6D4D1",
"PX c #E3DDD8",
"IX c #C1C1C2",
"UX c #7E7B82",
/* pixels */
"J W.(.(.B.9.p.i.A.`.T.p.9.7.| | :.y.Z.W..X1XwX3X/.A.1X(.9.!.~ 9..XqXwXkX4X6X1X(.^.!.@X*X!.y.3.) w.z.T.wX.XwX9X$X^.T.Y.p.i.I.d.u ",
"!..X^.Y. XqX XqX%XqX-XwXwX4XzXZ '.oXwXkXbXwXnXwXwXqXbX1XPXvXwXb 3XhXFXvXBXgXgXqXbXtXuXhXuXG.:.] 3.'.nX X.X%XfX4X}.}./.R.A.6.d.9 ",
"F.I. X!.8.}.J.T.%X$X X.X4XA.3X9.*XdX!. XB.!.1XkX3X1XqX5 .XJ.Z.6 uX5X1X5XqXqXwXbX7XE.6X4XtXU.:.| B U.4XT.Z.T.^.!.J.8.8.s.L.Y.u.0 ",
"G.}.%XG.A.G.!.T.T.(././. X(.).T iXrXQ.~.5X^.!.3XbX!.8.fX4XiX.X!.MXuX5X$X3XqXkX7X3X*XpXuXtXT.1.=.,.#X5X/.).<X6X}.Z.Q I.A.).i.9.A ",
"G.R.p.R I.}.}.}.!.3X2X/./.1X<X6.;XvX(.E.~.Q.J.3X6XFXbXgX4X1XfXP BXgX5X5XfXgXqXkX X4XrXuX*XA.S I d.&X/./.dX8X/.%XJ.A.^.Q.).S.`.8 ",
"T.`.I.s.u.K R. X5X3X6X!. X^.T.p.tXpXE. X^. XwX.XJ.qXqX6X4X3XqX! DXgXbXbXbXSXVXfXqXdX7XkXJ.qX@X1.0.tX3X X XJ.^.8.J.!.J.J.Q.C.p.v ",
"`.}.a.R.R.>.Z.Y.oX3X^.K.Z.!.G.<.%XMX.X1XY.8X XqXqX6X6XfXfXkX3X! bXgXgXgXbXbXFXDXgXgXkX^.fX5XT.2.d.tX^.(.Z.Z.Q A. X^.J.G.Q.Y.6.f ",
"v.*.u.s.u.9.`.!.L.4X3XJ.Y.}..XT 9XdX X X6X3X.XY.^..XwX4XdXqX3XZ.FXqX4XfXkXbXbXbXbXFXfXkXqX3XR.0.v.yX^.D.C.Z.A.J.Z.J.Y.T.L.C.T.*.",
"] y r.U S }.}.~.~.1X XK..X X X7.iXMXqX^. XkX!.^.!.7XfX XqX6X X8.DXqXIXbXDXbXIXbXbXqX!.hXqX7XR.>.l.;X XZ.Z.Z.D.J.A.Z.!.}.Q.!.^.M ",
"..a +.@.g.6X^.C.}.J. X1X.X1XXX1.zXMXqXqXkXwX9X6XqX8XqXqX6XqX6X! BXgXBXfXhXqXgXbXfXtXMX5X8XsX6XR 1.I.^./.!.S.Z.B.S.A.J.L.S.A.U.x ",
"3.3.6.j.u.@XJ.T.$X X3X XqXgX`.S cXGX7XqXbXqXqXqX3XqX3X3X X7XkXi.GXpXuXiXkXqXkXfX6XeXdX8XaXdXrX<.Z a.Z.1XQ.S.Z.! A.Z.J.L.D.i.s.N ",
"M.k./.7X~.T.4X%X6XrX6XgXuXiXl.U PXKXDXgX3XqXkXgX4X6XqXqX6X XbXA.CXuXfXuX7XfX6X.XgXdX5X X X.XU F Z a.P G ^.Z.F.Z.Z.Z.8.A.C.i.I.p ",
"@.`.Y./.E.}.9X4X9X6XpXuX6X9X`.4.CXCXBX4XfXfXgXqX4XhXgXuX4X6XdX3XuXgXuXtX4X1X8.8.dX8X5X@X-XH.2.* A E.P J Z.^.!.W.A.i.S.A.w.A.F.B ",
"1.%XR.'.=X%XwXG.G.@X'.yX@X'.0.d.AXgX3XkXjXuX7X1X6XfXdXdX XjXbXJ.tXdXsXeX8XA.3X3XfX5XoX%XH.,.:.B D G.8.H g 3X XJ.Z.D.i.A.D.C.<.M ",
"1.j.u.f.e.f.v.d.d.1.e._.z.X.c.p H.fXjXqXdXdXaX6X7X7X6X8XeXBXR.6.MX5X8XaXY.J.4X4X7X6X@Xz.m.c ;.s 0._.U <.9.<.U %XQ u.R I.}.U.1.- ",
"i -.M M x B p -.X. .+.B x * a | ;.N C *.<.L *.L ,.7.-.U U 1.;.X.=XtX$XA.Y.B.~ W ! 9.w.- c c r & o.N #.+.:.9 0 y 9 k a - i > < 1 ",
"{ k.j.U.mX:XZXmX:X=X:X>XH.[.#X| {.lXnXzXzXnXzXcX0XZXZXKXZXcX=XlXC ;XBXMXgXdXfXqXkXHXSXDX*XMXnXH.| b.m.n.`.[._.!.}..X%XpX9X%X`.;.",
":._.6XtXvXFXbXvXuXtXtXiXpXR.I.k -XmXBXhXdX8XqXgXbXhXDXjXGXrXJXT.XX-XHXMXfXhXkXqXgXgX5XGXrXH CX9.,._.;XyX#X%X9XE.^.&XE.4X}.!.'.f.",
"7.vX6X$XjXiX6X6X%X1X!. XfX3XH.L |.pXdX5XL.E.3XDXqX X6XdXiXFXvX8.VXqX6X7X7X7X7X.X!.6XqX.X X$X6.n h.2.U.`.U.T.T.A.a.i.J.A.A.G.T.L ",
"9.bX X3XuX6X4X%X XQ.!..XgX7X`.,.].@X~.Z.~.T.3XbXuXbXkXrXpXgXiX^ nXiX X XaX7X7X6XfXqX X4X3X1XE.6 R |.'.j.U.7.T.Y.i.T.8.b !.I.R.R ",
"u.iXT.$X5X%X%X%X9X3X X1XqX4Xh.1.].j.<.l.T.u.4X(.fXkXkX5XgXFX}.J wXzX4XfXqX7X6XkX3X X4X.X/./.A.Q I.u.G.8.I.K I.G.i.6.8.~ Y.R.}.Z ",
"y.tX$X^.6XiX4XT.6X6X^. X3X3XT.A 2.e.f.v.k.#X%X XuXkXqXQ.I.E.I.9.bXJXbX3XfXkXqXfXwX4X X X3X X~.w.D.6.Y.4XA.P A.Z.Y W W Q i.I.}.I ",
"u.,X@XrX^. X}.J.fX3X6X6XwX X}.S :.{.3.[.k.9X9.^..X X.XE.@XtXfXZ.vXFXfX5XfXfXqXdX3XqX1X3X4X3XoX~ E.A.3X7XA.^.Z.G u.I.C.i.J.}.R.e ",
"u.}.T.}.}.}.K.%X4X1XkXkX1X1XvX2.].:Xz.1.%X@X@XT.K.K.wX4XqXrX7XA.NXMXeXMXwX6X8X4X6X1XqX1X4X6X<XE .XA.K.J.K.Z.Z.P Q A.A.E.T.!.A.H ",
"K. XT. X XF.%XqX|. X3XqX4X4XqXU [.+Xt.1.#X*X;X%X.X1XK.fXtXE.tXB.nXFX8X6XwX6X3X X4X4X X3X3X X/.P !.>.8.A..XS.B.! 8.A.A.Z.G.A.I.Q ",
"B.wX1XK.!.}.!.uX%XqX4X6X4X4X0X;.4.f.x.d.#X#XtX&XJ.T. XkXqX6XpX7.zXFXjXdX X.X!.^.qX6X6X X.X6X X3 .X#X X/.D.C.8.W A.).Q.A.^./.qXi.",
"B.kXwX1X.X!.}.%X6XI.}.tXtXtXyX+.3.r.g.z.F.E.U.R././.).6XuX@X,X,.mXwXkXwX X^.!.^./. XwX X3X X XP H.`.qX6X XA.8.8.A.Y.Z.K.K.!.1XB.",
"B.wXqX3X!.%X.XI.yXT.tX%X6XfX`.:.t.B -X%X}.!.I.~.~.L.*X.X0XtX;XB >X`.5X<X~.E.oX^. X~.5XuXZ.1X/.R s.NX1X^.(.!.9.C.J.J.J.J.J.S.^.F.",
" XuX^.6X$X(./.Y.!.^.oXY.*X6X&XD :.#X7X1X/.8XdXyXnXT..X}.5X~._.N c.f.R.@X@XoX@X(.(.W.2Xw.I.I.I.B '.CX XY.9.8.A.J.8.D.J.Y.Y.A.J.W.",
"!.9XuX4X!.Q.Q.Y.~.tX~.}.9XT.x.x.x.OX$X/.qX3XuXfXvXqX X(.2XS.k.y O.$.g.g.U.@X~.(.W.(.(.A.A.w.c u z.MX.XK..X8.Q D.8.K. X X/.1X!.A.",
"$X6X4X@X6X%X4X@X'.`.k.1.B = l [ +X#X`.0XwX-XwXqXqX}.^.%X`.#X4.] 2 _ N.%.c  .d.F.J.F.-.u.-.:.t.) b.OXqX!.S.8..XY.!.!.6X.X X3X XqX",
"p.G.Q G K V 1.2.Z 1.4.y $ 1 < ) c.#.-.;.*.X.A #.= [ #.= x A x : 2 N._ ) 2 > = j n c = # s p l ( { 9.! 9.P P Y 8.W W W 8.! J.!.A.",
"B.nXvX!.%XwXH.|.}.v._.4.d.f.+.< t.n.1.C h.l.h.mX[._.|.N.m.,Xt.l c $.$.5.e.M z B X.3.| x N o.$.} } m.B.zXnXuXJXpXvXpXCXbXbXfXhXC.",
"B.vXvXvXGXtX*XCXtX0XnXzXbXbXxXx r.nXZXJX0XwXqXIXIXHXHXHXaXDXtXz @.m.[.l.|.xX0XiXpX%XI.|.%X-XB.5.5.yXFXnXnXbX*X9X9XiXBXFXJXLXKXD.",
"B.kX$X@X^.L.E.E.*X3X6X7X6X7X6X*._.JX3X7XdXjXhXfXqXqXqX/.1XwXz.c g.lX0X%XY./././.i.V.V.W.~.V.K.,.0.VX!. X^.oXoX~./.~.$X8X6XwXqX8.",
"S.vX/.OXA.}..X6X6X6X6X7X3X/.$X4.:XVXqX6XqXqXqXfX5X.XL.s.T.*Xh.z {.:X$X6X.X!.Y.J.A.Y.L.Y.^.W.UXH.e.uXW.!.3X(.)./.oX/.W.4X6XqXqXC.",
"T.JX.XP 3X%X X3X@X3X3X3X3X7XnXq.VXJX6X6X3XqX^. XQ.Q.S.!.~.Q.u.0 #.pXoXqX!.S.Q.4XY.J.C.J.i.Q.OXs.2.OXG.4X1XS.S.S. X!.3X3X1XuX4XF.",
"}.zX^.7X~.6X%X%X4X/.7X3X3X7XzX0.nXFXqXfX X3XJ.^.!.8.J.A.S.Q 7.t c tX/.J.K.!.1X X!.! J.3X9.Q P.h.2.@Xp.J.J.Q././. X X XwX3X7XtXW ",
"8.iXJ./.Q.6XiXqX4X.X X4X6X9XyX=.VXFX3X!.1X^.8..X3X X1X XD.(.R t B cX3XJ.8.S.B..X! Q Z.8.!.H R L <.@XG.T Z.3X6X X1XqX X7XoX X`.9.",
"T iX!.!.~.T.T.%X6XwXwX-X9XtX0X| NXVX^..X X.X(.3X.X X X6X/.^.j.z 0 yX4X XW Q J.B.A.8.i.J.D.D.w.-.2.z.0.u.9.T./.%X3X1X X.X!.!.T.I ",
"<.qX!.3XL.!.}.fX6X.X.X4X X}.,X$.yXCXA.Y.^.J.qX.XqX XY./.L.5Xj.* z #XeX^.C.~ W Z.A.J.8.8.! A.Z z ;.y.7.H.T.K.}././.^.Q.B.Z.S.T.>.",
"j.uXQ.Q.%XT.}.qX%X}.}.4X^.R.[.@.>XVXA.S.Y.Y.fXJ.qX.X6X.X/.oXx.= r.#X/.!.8.! Q ! C.J.W J.! 6XC j *.-.<.1.l.Z.(.Q./.(.V.i.Z.J.7.X.",
"`.%X~./.G.A.4X6X}.%X X^.}.p.|.| [.CXY.J.!.!.6XbXY.3X3XwXoXP.D # 3.#X~.I.W Z.W A.8.8.8.Z.C.S.L B f.x.2.,.0.h.J.L.Y.w.E >.7.j.+.| ",
"d.A.tXD.a.p.%X X$X%X%XT.^.p.7.& {.#X X!.!.F.i.wX.X XwX1X!.~.2.l t.tXoXE.J.8.A.Z.8.J.S.1X!.!.R F :.2.N | X.<.8.D.w.T Q 4.d.d.3.{ ",
"d.nX/.S.G.!.!. XT. X}.T.}.%Xd.= X.@X4X1X^.!.J.1XwX3XqX1X!.oXz.= x #XS.A.8.!.Y.K.J.Q.K.J.(.J.G.S u @.| o.c.l.G.L.Y.6.U 1.u.l.f.x ",
"<.iX(./.}.T J.^.Y.@X!. X^.4Xk.= +XnX XqXA. XS.^.3X X6X4X1X$X#. .i V D.G.Z.J.Q.S.A.).J.J.8.!.9.w o.| a o.b.l.h.L.S.Q U h.G.[.-. .",
"S T.A.j.7.8.B.i.p.G.J.R.z.0.s < | n.,XyX.X1X.X^.^.!.^.4XwXwX[./ i j.^ B.W T K n f m F l O.= r - i ] i y | X.j.a.T.<.1.k.l.v.,.a ",
"> S M r j I j q G V L c c * @ ( `  .N =.^ B.B.w.H L B =.d.N ' ( # u.C.R K I I L f > l 2 { [ 8 @ , ' , ` ` x r S M B a w & y i & ",
"` ;.L L L >.B.<.=.=.-.B c c } @ { $.g.d.1X!.A.2X@X'.,Xg.0.B ` @ x @X2XrXJ.i.h.6.9.s.T.}.E.E.1.x ..o.@.o.=.;.0.A 1.1.;.L A ;.0.y ",
"o.K.^.(.).D.K.L.S.8.F.,Xm.m.$.& x 3.@X.X1X1XgX6X6X7XdX@XgXGXmX9 N &XoX*XeXaXhXkX9X&X^.hXCXuXR w M |.%X.X.X$X~.Q.~.}.T.L.Q.F.K.V ",
"9 l.J.C.A.D.A.J.G.k.x.s.y.9.C u f.'.s.R 8.A.^.!.(.$X^.Q.(.Y._.= 1.wXD.Z.Q Q.A./.J.B.D.Q.3X!.B.7 C wXY.!.!.Y..X!.^.J.Y.^./.Y.H.B ",
"Z A.L.L.D.L.A.G.I.h.s.z.x.L A O ].a.6.T.K Y oX X.X XS.~.S.oX=X+.v.%X3X!.Z.8.8.J.(.J.Q.Y.3X.XF.k B.uX.X!.J.!.Y.K.(.!. X6X(.$X#XX.",
"H *Xw.(.L.D.~.!.T.H.U w.w.1.9.r U.P.L R Z.D.Q.3X X^.W.W.Z.)..XC |.uX1X X XZ.8.Z.!.!.^.^.3XJ.p.C H./.1XA.!.3XS.A.^..X XY.~.*X@Xr ",
"UXp.z.G.J.L.E.T.p.u.e.x.w.7.9.M '.~.u.6.Q A.^.!.W.J.!.K.W.(.!.L k.wXkX7X(.A.!.K.J.W. X X3X!.T.9.9.uX$XJ./.1X3X X X^..X5X~.uXU.S ",
"G s.R h.`.5X~.Q p.2.x.w.v 1.>.M U.oXI.i.A.T.(.Y.J.Y.!.K.K.K..X9.-XvX/.!.D.8.(.S.(. X7XwX3X$X^.d.k.dX XS.Q.qX X4X.X.X XtX8XS..XC ",
"D ,.L <.U U.Y.S.Z.I.a.x.m D L j H.G.J.Z.8.8.3Xi.F.8.I.S.qX X XJ.gXDX!.A. X X!.4X/.!.!.!.@X5XR.j.1.*X$X!.^.3X6X).!.3X3X1X/.5X!.r ",
"S V 7.2.-.2.p.Z.y.a.s.x.S x.*.p 1.>.A.)././.A.J.T.Z.T.gXZ.kX!.S.gXbX!..X6X XwXfXJ.Y.Y.6X4X$XR.7.1.*X/.!.Y. X X!.3X X X}.!.5X}.f ",
"2.9.h.e.D ;.T 6.7.p.u.1.A 1.| a ;.0.8.^. XqXJ.J.J.!.T.^.J.A. XD.fXbX4XqXqXqX3XY.^.I. X@X6X*Xj.-.A E.!.^.(.!.kX6X X!.Q.T.L.Q.T.M ",
"x.1.C N @.+.-.L X.u.u.l.*.;.x | 4.v.(.!.3X1XqX}.A.%XG.Z.J.!.fXB.fXbXqXqXfXfX6X^.S.^.!.@X%X*Xw.A A P. X XJ.4X4XwX X!.J.!.S.S.p.f ",
"@., ; z A 1.*.,.*.x.z.h.,.o...y @.3.K.J..X.X^.@X^.J.!.!.J.1XqXC.gXhX8X7X6X8X8X X/.!.&X&XtX@X=.k 5.H.8X/.~.$X6X.X$X XJ.A.P.E.I.k ",
"z l l z D h.9.7.>.0.j.9.=.| ;. .@.3.;.D U }.!.@X!.K.!. X3XgXqXZ.gXbXkX4X8X8X3XaXdX7X3X5X/.D.J C l.$X5XQ./.2X2X1X/./.S.D.w.L.E.k ",
" .+.F x.j.J.B.W.Q.K.>.p X.x l u @.+.' ] Z y.5X@X3X(.1X4X6XqX7XZ.iXnX}. X7X7X*X6X7XjX1X/.1X).m V 0.-X.X%X}.A.Y./.!.J.^.D.E.s.U.t ",
"l U D 2.2.W.B.B.L..X>. .@.;. .x v.1.:.:.R T.$XiX}.wX4X6XkXbXfXB.1X X%X;X@Xz.xX;X:XwX%XK.l.1.0 u _.XXr.]._.T.}.`.XXH.H.G.E.s.t.x ",
"0 d K Z Z Y G 5 m ^ 9.B c +.z u 0 V G g g W Y K 8.Q ~ 8.Z. XQ.W.F.I 6.6.2.0 F z +.=.| *.a ] , < c.{ $.a +.V S X.N 0 r k t t [ > "
};
