/* XPM */
static char *result[] = {
/* columns rows colors chars-per-pixel */
"55 62 164 2 ",
"   c #282828",
".  c gray16",
"X  c #312C28",
"o  c #312C29",
"O  c #3D2F2F",
"+  c #3E2F2F",
"@  c #312F35",
"#  c #313131",
"$  c #323135",
"%  c #353535",
"&  c #413329",
"*  c #493629",
"=  c #573C28",
"-  c #573C29",
";  c #5D3E29",
":  c #483333",
">  c #5E3A3A",
",  c #683D3D",
"<  c #6F3F3F",
"1  c #6A4429",
"2  c #7B4B28",
"3  c #7B4B29",
"4  c #694F3D",
"5  c #6D523F",
"6  c #393542",
"7  c #3C3746",
"8  c #413B4E",
"9  c gray26",
"0  c #464646",
"q  c #49425B",
"w  c #5B5B5B",
"e  c #624D5F",
"r  c #7A604E",
"t  c #4F4663",
"y  c #5F4D63",
"u  c #574C70",
"i  c #5A4E74",
"p  c #5A5070",
"a  c #644D6A",
"s  c #604D6C",
"d  c #615B70",
"f  c #645F70",
"g  c gray44",
"h  c #864F28",
"j  c #864F29",
"k  c #8B5129",
"l  c #B46228",
"z  c #B56228",
"x  c #B46328",
"c  c #B46229",
"v  c #B56229",
"b  c #B46329",
"n  c #B56329",
"m  c #874747",
"M  c #884747",
"N  c #934B4B",
"B  c #9E5151",
"V  c #A14F4F",
"C  c #A85151",
"Z  c #B35555",
"A  c #896348",
"S  c #AA7148",
"D  c #BB7442",
"F  c #AD7856",
"G  c #B27B54",
"H  c #B27B55",
"J  c #D35F5F",
"K  c #DD6262",
"L  c #DD6363",
"P  c #DE6262",
"I  c #DE6363",
"U  c #BA8057",
"Y  c #DB894F",
"T  c #D28F5F",
"R  c #E08E55",
"E  c #E08F55",
"W  c #E18F55",
"Q  c #EA9D67",
"!  c #F6A46A",
"~  c #F7A46A",
"^  c #F6A56A",
"/  c #F7A56A",
"(  c #F6A46B",
")  c #F7A46B",
"_  c #F6A56B",
"`  c #F7A56B",
"'  c #625581",
"]  c #685D81",
"[  c #6A5B8D",
"{  c #6D5D91",
"}  c #726098",
"|  c #73619A",
" . c #7B67A6",
".. c #806CAF",
"X. c #8370AF",
"o. c #8670B7",
"O. c #8B74C0",
"+. c #947ACC",
"@. c #997FD5",
"#. c #818181",
"$. c #8D8D8D",
"%. c gray57",
"&. c gray59",
"*. c #9A9A9A",
"=. c #9181B7",
"-. c #9C91B3",
";. c gray65",
":. c gray67",
">. c #A7A2B3",
",. c #B7B7B7",
"<. c #BBBBBB",
"1. c #9C81D9",
"2. c #B9A8DD",
"3. c #A487E5",
"4. c #AC8DF2",
"5. c #AF8FF6",
"6. c #B291FA",
"7. c #B493FE",
"8. c #B593FE",
"9. c #B493FF",
"0. c #B593FF",
"q. c #B494FE",
"w. c #B594FE",
"e. c #B494FF",
"r. c #B594FF",
"t. c #B798FF",
"y. c #BDABE5",
"u. c #BDA0FF",
"i. c #BFA2FF",
"p. c #C2A6FF",
"a. c #C6ADFF",
"s. c #CAB3FF",
"d. c #CDB7FE",
"f. c #CDB7FF",
"g. c gray80",
"h. c #D5D5D5",
"j. c gray85",
"k. c #DDDDDD",
"l. c #D5C8F2",
"z. c #D3C0FE",
"x. c #D3C0FF",
"c. c #D6C4FF",
"v. c #D7C6FE",
"b. c #D7C6FF",
"n. c #D9C8FF",
"m. c #DACAFF",
"M. c #DCCCFF",
"N. c #DED5F2",
"B. c #E1D5FE",
"V. c #E4D9FE",
"C. c #E6DBFE",
"Z. c #E6DBFF",
"A. c gray90",
"S. c #EEEEEE",
"D. c #E9E5F2",
"F. c #EDE5FF",
"G. c #F1ECFE",
"H. c #F1ECFF",
"J. c #F6F2FE",
"K. c #F6F2FF",
"L. c #FCFAFF",
"P. c #FEFEFE",
"I. c white",
"U. c None",
/* pixels */
"U.U.U.U.U.U.U.U.U.U.U.U.U.U.U.U.U.U.U.U.U.U.U.U.U.U.U.U.U.U.U.U.U.  . . . .   . . . .   U.U.U.U.U.U.U.U.U.U.U.",
"U.U.U.U.U.U.U.U.U.U.U.U.U.U.U.U.U.U.U.U.U.U.U.U.U.U.U.U.U.U.U.U.U.  . .   . . .   . . . U.U.U.U.U.U.U.U.U.U.U.",
"U.U.U.U.U.U.U.U.U.U.U.U.U.U.U.U.U.U.U.U.U.U.U.U.U.U.U.U.U.U.U.U.U.. . . . .   . .   . . U.U.U.U.U.U.U.U.U.U.U.",
"U.U.U.U.U.U.U.U.U.U.U.U.U.U.U.U.U.U.U.U.U.U.U.U.U.U.U.U.U.U.U.U.U., , , , , , , , , , , U.U.U.U.U.U.U.U.U.U.U.",
"U.U.U.U.U.U.U.U.U.U.U.U.U.U.U.U.U.U.. . . .   . . . . . . . . . . I P P I I I I K I P I .     . U.U.U.U.U.U.U.",
"U.U.U.U.U.U.U.U.U.U.U.U.U.U.U.U.U.U.. . . . .   . . . . . .   .   P I K I L I I I I I K . .   . U.U.U.U.U.U.U.",
"U.U.U.U.U.U.U.U.U.U.U.U.U.U.U.U.U.U.. . . . .   . . .   . . . . . I I I P P P P P I I I . . . . U.U.U.U.U.U.U.",
"U.U.U.U.U.U.U.U.. . . . . . . . .   } O.O.O.O.O.O.O.O.O.O.q . . . > > > > > > > Z I L I C C C m . . . U.U.U.U.",
"U.U.U.U.U.U.U.. .   . . . . .   .   o.e.r.e.q.0.r.e.7.e.q.u . . . . . . . . . . V I L P I I I V . . . U.U.U.U.",
"U.U.U.U.U.U.U.. . . . .   . . . . . o.8.r.r.r.r.r.r.r.9.r.u . . . . . . . . . . V I L I I I I V . . . U.U.U.U.",
"U.U.U.U.U.U.U.% % % % % % % # . . . ..4.4.4.w.e.r.6.4.4.4.i @ @ @ @ @ @ $ % % % B J J J K I P V   .   U.U.U.U.",
"U.U.U.U.  . . ,.I.I.I.I.I.I.,.. . . . .   . e.8.e.o.. . . o.r.r.9.9.r.r.d.P.I.P.g . .   P I I V . .   U.U.U.U.",
"U.U.U.U.. . . ,.I.I.I.I.I.P.,.. . . . . . . e.r.r.o.. . . o.r.r.r.r.r.r.d.I.I.P.g .   . I I I V . . . U.U.U.U.",
"U.U.U.U.. . . ,.I.I.I.P.I.I.,..   . . . .   q.r.r.o..   . o.0.r.w.w.0.9.f.P.I.I.g   . . I K P V .   . U.U.U.U.",
"U.U.U.U.. . . ,.I.I.I.I.I.P.h.#.#.#.0 .   .  . . .| ' ' ' @.0.r.r.x.x.z.B.I.I.I.:.#.#.#.N N N < . . . U.U.U.U.",
"U.U.U.U.. . . ,.I.I.I.I.I.I.I.I.I.I.g . . . . . . u r.r.r.r.r.r.r.I.I.I.I.I.I.I.I.I.I.I.. . . . . . . U.U.U.U.",
"U.U.U.U.. . . ,.I.I.I.I.I.I.P.I.I.I.g . . . . . . u r.9.r.r.r.r.r.P.P.I.I.I.I.I.P.I.I.I.  . .   .   . U.U.U.U.",
"U.U.U.U.  .   ,.I.I.I.I.I.P.I.I.I.P.g .   . .   . u e.r.q.r.q.r.7.P.I.P.P.I.I.I.P.P.I.P.  . .   . . . U.U.U.U.",
"U.U.U.U.  . . =.a.a.a.a.a.a.n.I.I.I.k.g.g.g.. . . u r.0.r.m.F.F.F.w w w %.P.I.I.I.I.I.I.g.g.g.&.. . . U.U.U.U.",
"U.U.U.U.. . . o.r.r.r.r.r.r.d.P.I.P.P.I.I.I.. . . u q.e.w.C.I.I.I.. . . g I.I.I.I.I.I.I.I.I.I.,.. . . U.U.U.U.",
"U.U.U.U.  .   o.9.r.9.7.r.0.f.I.I.I.I.P.I.I.. . . u r.r.r.Z.I.P.I.. . . g I.I.I.I.I.P.I.I.P.I.,.. . . U.U.U.U.",
"U.U.U.U.9 9 9 X.3.3.3.r.r.r.s.K.K.K.L.P.I.P.9 9 9 ] r.r.r.Z.I.I.P.. . . g I.I.I.S.A.A.A.A.A.A.;.. . . U.U.U.U.",
". . . g I.P.I.g . . . 9.r.r.e.r.7.r.Z.I.P.I.P.I.I.Z.r.7.r.Z.I.I.P.. . . g I.P.I.g . . . . . . . .   . U.U.U.U.",
". .   g I.I.I.g . . . r.r.r.r.w.8.r.Z.I.I.P.I.I.I.Z.w.8.r.Z.I.I.I.  . . g I.P.I.g . . .   . . . .   . U.U.U.U.",
". . . g I.I.I.g . . . r.w.r.0.r.r.w.Z.P.I.I.I.I.P.Z.r.r.w.Z.I.P.I.. . . g I.I.I.g .   . . . . . . . . U.U.U.U.",
". .   f M.M.M.>.$.$.$.| | | | | | | 2.M.M.M.I.I.I.H.b.b.b.H.I.I.I.$.$.$.%.*.*.*.r 1 1 1 A A A 4 . . . U.U.U.U.",
".     u 0.9.0.Z.I.I.I.  . . . . . . o.w.r.r.I.P.P.I.I.I.I.I.I.I.I.P.I.P.,.. . . j n v n ! _ ~ G . . . U.U.U.U.",
".   . u 0.r.9.Z.I.I.I..   . . . . . o.r.9.r.P.P.I.I.I.I.I.I.I.I.I.P.I.I.,.. . . h n n n ( ` ( G . . . U.U.U.U.",
". . . u r.r.r.Z.I.I.I.. . . . . . . o.r.e.r.I.I.I.I.I.I.I.I.I.I.I.I.P.I.,.. . . j n n n ( / ` G . . . U.U.U.U.",
"  . . u 9.9.9.Z.I.I.I.j.j.j.j.j.j.j.D.H.H.H.p.p.p.c.I.P.I.I.I.I.I.I.P.I.N.1.1.1.y & & & ` ~ ` Q T T T 4 . . . ",
". . . u r.r.r.Z.I.I.I.I.I.I.I.I.I.I.I.I.I.I.r.e.r.f.I.I.I.I.I.I.I.I.I.I.Z.r.r.r.u . . . ` ` ` ` ` ` ` 5 . . . ",
". .   u r.0.r.Z.I.I.I.I.I.I.I.I.I.I.I.I.I.I.r.e.w.f.I.I.I.I.P.I.I.I.I.P.Z.q.r.q.u . . . ` ` ` ` ! ` ( 5 . . . ",
". . . t 1.1.1.l.G.H.G.P.I.I.P.I.I.I.J.H.H.H.1.1.1.y.I.I.I.P.I.I.I.H.H.H.l.1.1.1.a : : : T T T T T T T 4 . . . ",
"  . . . . . . o.0.r.r.I.I.I.P.I.I.I.f.r.q.r.  . . g I.I.I.I.I.I.I.r.e.r.o.. . . V I I I . . . . . . . U.U.U.U.",
". . . . .   . o.9.w.r.I.I.I.I.I.I.I.f.r.7.r.. . . g I.I.I.I.I.I.I.7.r.e.o.. . . V I I I   . . . . . . U.U.U.U.",
".   . . . . . o.w.r.r.I.P.I.I.I.I.I.f.r.r.r.. . . g I.I.I.I.I.I.I.w.9.r.o.. . . V I P I .   . . . . . U.U.U.U.",
". . . 8 | | | { [ [ [ b.b.v.V.P.I.P.-.[ [ [ *.*.*.<.P.I.P.I.I.I.I.r.w.r.o.. . . V I I I M M M , . . . U.U.U.U.",
". .   u r.8.7.u   .   8.r.r.f.I.I.I.g   . . I.I.I.I.I.I.I.I.I.I.I.r.r.r.o.. .   V I I I I I I V . .   U.U.U.U.",
". . . u r.r.r.u . . . w.r.r.f.I.I.I.g . . . P.I.I.I.I.I.I.I.I.I.P.e.r.e.o.. . . V I P I I I I V . . . U.U.U.U.",
". . . u r.r.r.u . . . r.r.8.f.I.I.I.g . . . P.I.I.I.I.I.I.I.I.I.I.r.r.r.o.. . . V I I I I I I V . . . U.U.U.U.",
"U.U.U.U.6 6 6 ..3.3.3.r.r.7.t.u.u.u.p . .   I.P.I.I.I.I.I.x.u.u.u.r.r.r.5.3.3.3.s + + + + + + O U.U.U.U.U.U.U.",
"U.U.U.U..   . o.r.q.r.r.w.r.r.7.e.7.u . .   P.I.P.I.P.I.P.f.r.e.w.w.9.r.r.7.e.7.u . . . . . .   U.U.U.U.U.U.U.",
"U.U.U.U.. . . o.w.8.0.0.8.w.r.r.q.r.u . . . I.I.I.I.I.P.I.f.r.r.r.r.r.r.r.r.q.r.u . . . . . . . U.U.U.U.U.U.U.",
"U.U.U.U.. . . o.0.9.r.+.+.+.+.+.+.+.e * * * g.g.g.k.P.I.I.f.e.q.r.r.r.r.q.w.r.q.u .   .   . . . U.U.U.U.U.U.U.",
"U.U.U.U..   . o.r.r.0.  . . . . . . j n b n   . . g I.I.I.d.r.r.q.e.r.r.r.r.r.0.u . .   U.U.U.U.U.U.U.U.U.U.U.",
"U.U.U.U.. . . o.r.r.8.. .           j n n l   .   g P.I.I.f.r.r.r.7.r.0.r.r.9.r.u . . . U.U.U.U.U.U.U.U.U.U.U.",
"U.U.U.U.. . . o.r.0.r.. .   . . . . j n n n . . . g I.I.I.f.r.r.r.r.r.r.r.r.r.r.u . . . U.U.U.U.U.U.U.U.U.U.U.",
"U.U.U.U.. . . t ' ' ' 2 2 2 3 2 2 2 D Y Y Y . .   d x.z.x.i.r.r.r.' ' ' ' ' ' ' 7 . . . .   . U.U.U.U.U.U.U.U.",
"U.U.U.U.. . . .   .   b n n n n n n E _ ` ` . . . u r.r.r.w.e.r.q.  . . . . . . . . .     . . . U.U.U.U.U.U.U.",
"U.U.U.U..   . . . .   n v n n n x n W ` ` ` . . . u r.e.r.0.r.r.e.    .   .   .   . .       . . U.U.U.U.U.U.U.",
"U.U.U.U.. . . .   . . c n b n l n n W _ ` _ . . . u 7.r.r.r.r.e.r.. .   . . . . . . . . . .   . U.U.U.U.U.U.U.",
"U.U.U.U.. . . .   . . o o X ; c n c W ^ _ ` Q Q Q F @ @ @ @ @ @ @ . . . .   .   . . . . . . .   U.U.U.U.U.U.U.",
"U.U.U.U..   . .   .     .   = z x z E ) ` ^ ^ ` ) H       .   .     .   .       .   .     .   . U.U.U.U.U.U.U.",
"U.U.U.U.. . . . . . . . . . - n n n R / ` ` _ ` / H . . . . . . . . . .   . . .   . . . . . . . U.U.U.U.U.U.U.",
"U.U.U.U.. . .   . . . . . . * k k k S U U U U U U A . . . . . . . . . .   . . .   . . . . . . U.U.U.U.U.U.U.U.",
"U.U.U.U.U.U.U..   .   . .   .   .   .   . . .   . .   .   . . . .   .   .   .   . . . . U.U.U.U.U.U.U.U.U.U.U.",
"U.U.U.U.U.U.U.. . . . . . . . . . . . . . . . . . . . . . . . . . .   . . . . . . . . . U.U.U.U.U.U.U.U.U.U.U.",
"U.U.U.U.U.U.U.. . . . . . . . . . . . . . . . . . . . . . . . . .   . . . . . . . . . . U.U.U.U.U.U.U.U.U.U.U.",
"U.U.U.U.U.U.U.U.U.U.U.U.U.U.. . . . . . . . . . . . . . . .   . . .   . . U.U.U.U.U.U.U.U.U.U.U.U.U.U.U.U.U.U.",
"U.U.U.U.U.U.U.U.U.U.U.U.U.U.U.. . . .   . . . . .   . . . . . . .   . . . U.U.U.U.U.U.U.U.U.U.U.U.U.U.U.U.U.U.",
"U.U.U.U.U.U.U.U.U.U.U.U.U.U.U.. . . . . . . . .   . . . . . . . . . .   . U.U.U.U.U.U.U.U.U.U.U.U.U.U.U.U.U.U.",
"U.U.U.U.U.U.U.U.U.U.U.U.U.U.U.. . . . . . . . . . . . . . . . . . . . .   U.U.U.U.U.U.U.U.U.U.U.U.U.U.U.U.U.U."
};
