/* XPM */
static char *result[] = {
/* columns rows colors chars-per-pixel */
"48 48 4 1 ",
"  c black",
". c #FF0829",
"X c #FFD58B",
"o c None",
/* pixels */
"ooooooooooooooo               oooooooooooooooooo",
"ooooooooooooooo               oooooooooooooooooo",
"ooooooooooooooo               oooooooooooooooooo",
"      oooooo   XXXXXXXXXXXXXXX   oooooo         ",
"      oooooo   XXXXXXXXXXXXXXX   oooooo         ",
"      oooooo   XXXXXXXXXXXXXXX   oooooo         ",
"   XXX      XXXXXX      XXXXXXXXX      XXXXXX   ",
"   XXX      XXXXXX      XXXXXXXXX      XXXXXX   ",
"   XXX      XXXXXX      XXXXXXXXX      XXXXXX   ",
"   XXXXXX   XXX   ......   XXXXXX   XXXXXX   ooo",
"   XXXXXX   XXX   ......   XXXXXX   XXXXXX   ooo",
"   XXXXXX   XXX   ......   XXXXXX   XXXXXX   ooo",
"ooo   XXX   XXX            XXXXXXXXXXXX   oooooo",
"ooo   XXX   XXX            XXXXXXXXXXXX   oooooo",
"ooo   XXX   XXX            XXXXXXXXXXXX   oooooo",
"oooooo      XXXXXXXXXXXXXXXXXX   XXX   ooooooooo",
"oooooo      XXXXXXXXXXXXXXXXXX   XXX   ooooooooo",
"oooooo      XXXXXXXXXXXXXXXXXX   XXX   ooooooooo",
"oooooo   XXX                     XXX   ooooooooo",
"oooooo   XXX                     XXX   ooooooooo",
"oooooo   XXX                     XXX   ooooooooo",
"oooooo   XXX   ...   .........   XXX   ooo   ooo",
"oooooo   XXX   ...   .........   XXX   ooo   ooo",
"oooooo   XXX   ...   .........   XXX   ooo   ooo",
"oooooo   XXX   ...   ......   XXXXXX      XXX   ",
"oooooo   XXX   ...   ......   XXXXXX      XXX   ",
"oooooo   XXX   ...   ......   XXXXXX      XXX   ",
"oooooo   XXX   ...   ......   XXX      XXXXXX   ",
"oooooo   XXX   ...   ......   XXX      XXXXXX   ",
"oooooo   XXX   ...   ......   XXX      XXXXXX   ",
"oooooo   XXX   ............   XXXXXXXXXXXX   ooo",
"oooooo   XXX   ............   XXXXXXXXXXXX   ooo",
"oooooo   XXX   ............   XXXXXXXXXXXX   ooo",
"ooooooooo   XXX            XXXXXXXXX      oooooo",
"ooooooooo   XXX            XXXXXXXXX      oooooo",
"ooooooooo   XXX            XXXXXXXXX      oooooo",
"oooooooooooo   XXXXXXXXXXXXXXXXXX   oooooooooooo",
"oooooooooooo   XXXXXXXXXXXXXXXXXX   oooooooooooo",
"oooooooooooo   XXXXXXXXXXXXXXXXXX   oooooooooooo",
"oooooooooooo                        oooooooooooo",
"oooooooooooo                        oooooooooooo",
"oooooooooooo                        oooooooooooo",
"oooooooooooo                        oooooooooooo",
"oooooooooooo                        oooooooooooo",
"oooooooooooo                        oooooooooooo",
"ooooooooooooooo                  ooooooooooooooo",
"ooooooooooooooo                  ooooooooooooooo",
"ooooooooooooooo                  ooooooooooooooo"
};
