/* XPM */
static char *result[] = {
/* columns rows colors chars-per-pixel */
"39 62 190 2 ",
"   c #292929",
".  c #322D29",
"X  c #382E2E",
"o  c #3E3229",
"O  c #2C2D31",
"+  c #2E323E",
"@  c #34333C",
"#  c #3C3C3C",
"$  c #323232",
"%  c #443429",
"&  c #493629",
"*  c #4F3828",
"=  c #593D29",
"-  c #553B29",
";  c #4D3E33",
":  c #4F3535",
">  c #503535",
",  c #643C3C",
"<  c #534135",
"1  c #5D4737",
"2  c #4A433F",
"3  c #644129",
"4  c #6A4428",
"5  c #794A29",
"6  c #744829",
"7  c #604A3A",
"8  c #7C563A",
"9  c #2F3341",
"0  c #313646",
"q  c #3A3645",
"w  c #31374A",
"e  c #32394D",
"r  c #343D54",
"t  c #373F5B",
"y  c #423D4E",
"u  c #423C50",
"i  c #36405E",
"p  c #374364",
"a  c #39466A",
"s  c #3C496E",
"d  c #3C4567",
"f  c #3D4D7B",
"g  c #3C4B75",
"h  c gray31",
"j  c #484159",
"k  c #484057",
"l  c #595959",
"z  c #515151",
"x  c #5F4C5F",
"c  c #7B5A43",
"v  c #6D5C51",
"b  c #7B4343",
"n  c #78675B",
"m  c #4E4662",
"M  c #49486B",
"N  c #564C6C",
"B  c #5A4E74",
"V  c #504E76",
"C  c #475077",
"Z  c #5F527C",
"A  c #60537E",
"S  c #626262",
"D  c #6D6D6D",
"F  c #686472",
"G  c #777777",
"H  c #854F29",
"J  c #915428",
"K  c #885029",
"L  c #A45C29",
"P  c #B56329",
"I  c #BB713C",
"U  c #BC6A30",
"Y  c #C9773D",
"T  c #944B4B",
"R  c #BA5757",
"E  c #A95252",
"W  c #866146",
"Q  c #8A6348",
"!  c #9D6E4D",
"~  c #926444",
"^  c #967157",
"/  c #B27B55",
"(  c #B17449",
")  c #887272",
"_  c #C85C5C",
"`  c #C67943",
"'  c #DA6161",
"]  c #D56060",
"[  c #D6844A",
"{  c #C2855A",
"}  c #DE8C52",
"|  c #E9975D",
" . c #E08E54",
".. c #DF9663",
"X. c #CF9A74",
"o. c #CF976F",
"O. c #EA9D66",
"+. c #F19E65",
"@. c #F6A46A",
"#. c #3F5182",
"$. c #405387",
"%. c #42558B",
"&. c #49568B",
"*. c #435993",
"=. c #455C9C",
"-. c #425790",
";. c #575585",
":. c #675888",
">. c #6D5C90",
",. c #475FA2",
"<. c #4964AC",
"1. c #4C69B8",
"2. c #5262A5",
"3. c #7966A3",
"4. c #7E6AAD",
"5. c #7769AB",
"6. c #4F6EC4",
"7. c #506FC6",
"8. c #5273CD",
"9. c #5C76D3",
"0. c #7776CA",
"q. c #6479D6",
"w. c #6A79D5",
"e. c #6077D5",
"r. c #767FE0",
"t. c #836EB3",
"y. c #8972BB",
"u. c #8674AF",
"i. c #9178C7",
"p. c #987ED4",
"a. c #8D7ACD",
"s. c #6F8BD6",
"d. c #7B82E2",
"f. c #898989",
"g. c #9B9B9B",
"h. c #9C93B1",
"j. c #A9A8AD",
"k. c #B2B2B2",
"l. c #BBBBBB",
"z. c #B0A9BF",
"x. c #DDB79D",
"c. c #F4B98F",
"v. c #F6C29D",
"b. c #FAC9A7",
"n. c #E5C8B4",
"m. c #F5D3BC",
"M. c #E3C5AF",
"N. c #8E83D0",
"B. c #8C86EA",
"V. c #8983E3",
"C. c #9186E9",
"Z. c #928AEC",
"A. c #9B88EB",
"S. c #9394E9",
"D. c #A386E4",
"F. c #A98BED",
"G. c #A58AEC",
"H. c #A28CF3",
"J. c #AE8FF3",
"K. c #AC91FA",
"L. c #B493FE",
"P. c #BB9DFF",
"I. c #BFA3FF",
"U. c #A7AEEA",
"Y. c #C1A6FF",
"T. c #C5ACFE",
"R. c #CBB4FE",
"E. c #CDBCF3",
"W. c #C5B3EE",
"Q. c #B8C5EA",
"!. c #C5C5C5",
"~. c #D8D8D8",
"^. c #F4DAC6",
"/. c #F0DFD4",
"(. c #FCE2CF",
"). c #DCCDFF",
"_. c #D5C6F8",
"`. c #DFD1FF",
"'. c #E7DCFF",
"]. c #E2D6FF",
"[. c #E1E1E1",
"{. c #EAE9EB",
"}. c #F6EDE6",
"|. c #FDF4EE",
" X c #F1EAFE",
".X c #F3F3F3",
"XX c #FEFEFE",
"oX c #F8F5FC",
"OX c #E9E0FE",
"+X c None",
/* pixels */
"+X+X+X+X+X+X+X+X+X+X+X+X+X+X+X+X+X+X      +X+X+X+X+X+X+X+X+X+X+X+X+X+X+X+X+X+X",
"+X+X+X+X+X+X+X+X+X+X+X+X+X+X+X+X+X+Xr e e +X+X+X+X+X+X+X+X+X+X+X+X+X+X+X+X+X+X",
"+X+X+X+X+X+X+X+X+X+X+X+X+X+X+X+X  r 8.8.8.r   +X+X+X+X+X+X+X+X+X+X+X+X+X+X+X+X",
"+X+X+X+X+X+X+X+X+X+X+X+X+X+X+X+X  9 #.#.#.9   +X+X+X+X+X+X+X+X+X+X+X+X+X+X+X+X",
"+X+X+X+X+X+X+X+X+X+X+X+X                              +X+X+X+X+X+X+X+X+X+X+X+X",
"+X+X+X+X+X+X+X+X+X+X+X  g =.=.*.  h l.l.l.z   *.=.=.f   +X+X+X+X+X+X+X+X+X+X+X",
"+X+X+X+X+X+X+X+X+X+X+X  $.8.8.7.  S XXXXXXS   7.8.8.%.  +X+X+X+X+X+X+X+X+X+X+X",
"+X+X+X+X+X+X+X+X+X  p 1.8.8.r @ F.F.P.).XX.X{.q j K.V.1.p   +X+X+X+X+X+X+X+X+X",
"+X+X+X+X+X+X+X+X+X  p 8.9.e.t w p.G.K.).XX{.[.k m I.S.8.p   +X+X+X+X+X+X+X+X+X",
"+X+X+X+X+X+X+X+X+X  p 8.B.L.q.7.O m L.).XXS   J.Y.XXQ.8.p   +X+X+X+X+X+X+X+X+X",
"+X+X+X+X+X+X+X+X+X  p 8.r.B.9.7.  m L.).XXS   V.H.].U.8.p   +X+X+X+X+X+X+X+X+X",
"+X+X+X+X+X+X+X+X+X  a 8.8.8.8.7.. m L.).XXS   7.s.K.B.8.p   +X+X+X+X+X+X+X+X+X",
"+X+X+X+X+X+X+X  + %.#.a a a a s 4.N.]. XXXl.j.s s Z V a #.%.+   +X+X+X+X+X+X+X",
"+X+X+X+X+X+X+X  + 8.-.        O L.T.XXXXXXXXXX$         -.8.9   +X+X+X+X+X+X+X",
"+X+X+X+X+X+X+X  q K.5.        O e.d.Y.Y.Y.V.s.O         5.K.q   +X+X+X+X+X+X+X",
"+X+X+X+X+X+X+X  q K.4.          1.w.L.J.K.w.6.O         4.K.q   +X+X+X+X+X+X+X",
"+X+X+X+X+X+X+X  0 8.-.            r 8.8.8.r             *.8.+   +X+X+X+X+X+X+X",
"+X+X+X+X+X+X+X  + 8.-.      l S   w =.,.=.0   S l       *.8.9   +X+X+X+X+X+X+X",
"+X+X+X+X+X+X+X  + 8.*.      ~..X              .X~.      *.8.+   +X+X+X+X+X+X+X",
"+X+X+X+X+X+X    O f f f w   ~.XXg.G       G g.XX~.  w f f f O     +X+X+X+X+X+X",
"+X+X+X+X+X          p 8.s   ~.XXXX!.      !.XXXX~.  s 8.p           +X+X+X+X+X",
"+X+X+X+X  g.!.!.k.  p 8.0.i.F S S v J J J v S l F i.0.8.p   k.!.!.g.  +X+X+X+X",
"+X+X+X+X  l.XXXX[.  p 8.B.L.u     * P P P *     y L.C.8.p   [.XXXXl.  +X+X+X+X",
"+X+X  >.J.'.XXXXXXoXk.  %.8.H.F.  7 @.@.@.1   F.H.8.-.      O O X N L.:.  +X+X",
"+X+X  B N._. X X XXXk.  g <.B.A.  1 | | | 1   A.C.<.C % < < < < % N p.B   +X+X",
"+X+X      y.L.L.I.XXk.      <.7.  * P P P *   7.<.  3 P } @.@.+.P H       +X+X",
"+X% 3 &   Z 3.3.u.].h.  r s #.#.  o 5 5 5 o   #.C 3 4 5 ~ ! ! ! 5 6 3 %     +X",
"  & P 5         q L.4.  %.8.0                   % P 5             - P 4       ",
"  <  .I H H H . O B :.t.a.Z.2.-.  0 *.*.*.0       - 8 / / / / / / ~ = %       ",
"  1 @.[ P P P .     Z L.L.L.q.7.  r 8.8.8.r         c @.@.@.@.@.@./           ",
"  % U [ +.Y P X     a 9.Z.L.K.G.  j K.K.H.m     ; O.v.|.|.|.|.|.|.^...c       ",
"  % L ` | I L 2 q   i 6.a.K.K.H.@ M D.A.D.M +   ; @.v.}..XXXXXXX}.m.@.W       ",
"+X+X  4 P *   {.[.      %.8.8.8.8.,.      =.8.O ; @.} P M.XXXX|.P Y @.Q   +X+X",
"+X+X  = H n D .X{.B u   p *.*.*.*.&.B B B &.*.O ; @.O.X.x.n.n.M.X.o.@.W   +X+X",
"+X+X+X+X  l.XXXX XL.t.            m L.L.L.m     ; @.b.XXX.P P I XX(.@.Q   +X+X",
"+X+X  , T ) f.E.W.:.;.$.$.$.+ O 3.y.L.L.L.y.3.  ; @.b.XXX.P P I XX(.@.W   +X+X",
"+X+X  b ' ,   G.D.  p 8.8.8.0 O L.L.L.L.L.L.L.O < @.b.XXX.P P I XX(.@.W   +X+X",
"  > R _ ' _ R k q   O w 0 w O   q.d.L.L.L.d.q.O   < ^ c.m./././.c.o.< ; +X+X+X",
"  > ' ' ' ' ' o               O 8.w.L.L.L.w.7.O     c @.^.XXXX}.+./   +X+X+X+X",
"                                  r 8.8.8.r   ] _       ( @.@.O.    +X+X+X+X+X",
"      q j @                       w 2.,.,.w   E T       Q { { /     +X+X+X+X+X",
"+X+X  :.L.N   +X+X+X+X                                          +X+X+X+X+X+X+X",
"+Xu >.i.L.t.>.@ +X+X+X                                        +X+X+X+X+X+X+X+X",
"  j L.L.L.L.L.@   +X+X+X+X+X                      +X+X+X+X+X+X+X+X+X+X+X+X+X+X",
"  j L.R.OXT.L.@   +X+X+X+X+X+X+X+X+X+X+X+X+X+X+X+X+X+X+X+X+X+X+X+X+X+X+X+X+X+X",
"  j L._.XXR.L.@   +X+X+X+X+X+X+X+X+X+X+X+X+X+X+X+X+X+X+X+X+X+X+X+X+X+X+X+X+X+X",
"  l XXXXXXXXXX#   +X+X+X+X+X+X+X+X+X+X+X+X+X+X+X+X+X+X+X+X+X+X+X+X+X+X+X+X+X+X",
"  l XXoX XXXXXq   +X+X+X+X+X+X+X+X+X+X+X+X+X+X+X+X+X+X+X+X+X+X+X+X+X+X+X+X+X+X",
"  l XX).L.'.XX#   +X+X+X+X+X+X+X+X+X+X+X+X+X+X+X+X+X+X+X+X+X+X+X+X+X+X+X+X+X+X",
"  l XX).L.'.XX#   +X+X+X+X+X+X+X+X+X+X+X+X+X+X+X+X+X+X+X+X+X+X+X+X+X+X+X+X+X+X",
"  l XX).L.'.XX#   +X+X+X+X+X+X+X+X+X+X+X+X+X+X+X+X+X+X+X+X+X+X+X+X+X+X+X+X+X+X",
"  l XX).L.'.XX#   +X+X+X+X+X+X+X+X+X+X+X+X+X+X+X+X+X+X+X+X+X+X+X+X+X+X+X+X+X+X",
"  l XX).L.'.XX#   +X+X+X+X+X+X+X+X+X+X+X+X+X+X+X+X+X+X+X+X+X+X+X+X+X+X+X+X+X+X",
"  l XX`.L.'.XX#   +X+X+X+X+X+X+X+X+X+X+X+X+X+X+X+X+X+X+X+X+X+X+X+X+X+X+X+X+X+X",
"  l XX).L.'.XX#   +X+X+X+X+X+X+X+X+X+X+X+X+X+X+X+X+X+X+X+X+X+X+X+X+X+X+X+X+X+X",
"  l XX).L.'.XX#   +X+X+X+X+X+X+X+X+X+X+X+X+X+X+X+X+X+X+X+X+X+X+X+X+X+X+X+X+X+X",
"  l XX).L.'.XX#   +X+X+X+X+X+X+X+X+X+X+X+X+X+X+X+X+X+X+X+X+X+X+X+X+X+X+X+X+X+X",
"  l XX).L.'.XX#   +X+X+X+X+X+X+X+X+X+X+X+X+X+X+X+X+X+X+X+X+X+X+X+X+X+X+X+X+X+X",
"+Xh f.z.`.j.f.# +X+X+X+X+X+X+X+X+X+X+X+X+X+X+X+X+X+X+X+X+X+X+X+X+X+X+X+X+X+X+X",
"+X+X  f.XXD   +X+X+X+X+X+X+X+X+X+X+X+X+X+X+X+X+X+X+X+X+X+X+X+X+X+X+X+X+X+X+X+X",
"+X+X+Xh l +X+X+X+X+X+X+X+X+X+X+X+X+X+X+X+X+X+X+X+X+X+X+X+X+X+X+X+X+X+X+X+X+X+X",
"+X+X+X+X  +X+X+X+X+X+X+X+X+X+X+X+X+X+X+X+X+X+X+X+X+X+X+X+X+X+X+X+X+X+X+X+X+X+X"
};
